<svg width="1024" height="677" viewBox="0 0 1024 677" fill="none" xmlns="http://www.w3.org/2000/svg">
<g clip-path="url(#clip0_2266_287)">
<rect width="1024" height="677" rx="40" fill="#32302F"/>
<g filter="url(#filter0_f_2266_287)">
<rect x="355.38" y="-152.142" width="565.715" height="892.798" transform="rotate(15 355.38 -152.142)" fill="#797673"/>
</g>
<g opacity="0.05" clip-path="url(#clip1_2266_287)">
<path d="M234.779 -194.249C232.609 -181.79 232.754 -181.935 213.947 -172.518C203.386 -167.158 202.084 -165.999 198.323 -158.9C195.574 -153.685 193.838 -147.021 192.826 -139.343C190.511 -120.654 188.92 -114.28 184.869 -107.761C181.108 -101.966 180.963 -100.517 180.818 -82.6977C180.674 -65.3131 180.384 -63.2849 176.912 -57.2003C174.164 -52.2747 172.862 -47.349 172.138 -38.367C171.56 -31.7029 170.547 -25.6183 169.824 -24.8939C167.364 -22.4311 168.088 27.2599 170.547 36.0971C173.44 45.8035 176.478 47.8317 189.354 48.701C194.996 49.1356 200.782 50.2945 202.374 51.1638C206.28 53.6266 217.853 48.701 221.325 43.051C222.772 40.8779 226.099 35.5176 228.703 31.3163C231.452 27.1151 234.2 20.5958 234.924 16.8292C239.264 -6.06057 241.289 -10.2618 252.573 -17.2157C258.504 -21.1272 259.083 -21.9965 262.266 -33.5862C265.448 -44.8862 266.027 -46.0452 269.788 -46.7695C276.877 -48.2183 279.77 -52.7093 281.217 -65.8926C281.94 -72.4118 282.953 -78.3516 283.532 -79.2208C283.966 -80.09 284.834 -84.1465 285.557 -88.2029C289.174 -111.962 292.067 -125.58 295.105 -131.954C296.986 -136.011 299.156 -143.689 299.879 -149.049C300.602 -154.264 301.615 -159.19 302.049 -160.059C303.206 -161.798 298.288 -172.663 293.658 -178.893C290.765 -182.804 289.897 -185.702 289.897 -191.207C289.897 -206.128 291.778 -205.114 262.41 -205.114H236.804L234.779 -194.249Z" fill="#FAEADE"/>
<path d="M807.37 -167.448C805.344 -165.854 801.583 -164.55 798.69 -164.55C793.192 -164.55 789.286 -161.508 782.342 -151.512C777.858 -144.848 773.662 -142.24 760.787 -137.749C751.962 -134.562 741.98 -124.856 740.678 -117.902C739.666 -112.831 735.76 -99.0684 733.879 -94.2876C728.092 -79.0761 726.646 -65.7479 730.407 -60.8222C731.709 -59.0837 732.577 -54.4479 732.577 -47.2043C732.577 -34.8902 733.156 -33.5863 738.653 -32.1376C741.112 -31.5581 743.572 -29.385 745.018 -26.7773C747.188 -22.2863 748.201 -22.1414 754.711 -24.7491C756.881 -25.6184 757.17 -24.7491 757.17 -15.6222C757.17 -4.32222 758.762 1.18291 763.246 5.96368C767.442 10.4547 768.744 10.165 775.832 3.50086C779.16 0.313676 783.21 -2.29402 784.802 -2.29402C790.878 -2.29402 798.979 -8.5235 802.451 -16.0568C808.238 -28.3709 809.684 -33.0068 810.697 -45.0312C811.71 -55.462 816.484 -77.0478 818.654 -80.6696C819.232 -81.394 820.1 -85.0158 820.824 -88.9273C824.006 -106.167 825.598 -111.093 831.963 -123.986C838.762 -137.459 838.762 -138.039 838.473 -149.918C838.039 -161.943 836.014 -167.593 831.24 -169.621C828.491 -170.635 824.006 -168.027 822.994 -164.55C821.836 -160.929 816.484 -160.639 816.484 -164.261C816.484 -166.868 813.88 -170.345 811.999 -170.345C811.565 -170.345 809.395 -169.041 807.37 -167.448Z" fill="#FAEADE"/>
<path d="M50.329 -137.894C48.4483 -136.445 46.7123 -136.3 43.6743 -137.314C41.3597 -138.184 36.875 -138.329 33.403 -137.894C30.0757 -137.314 24.1443 -136.735 20.2383 -136.445C15.7537 -136.156 12.4263 -134.997 11.4137 -133.548C10.401 -132.244 7.79701 -131.23 5.48235 -131.23C-0.0149868 -131.23 -5.80166 -127.898 -17.6643 -118.191C-33.1437 -105.298 -37.0497 -101.241 -37.0497 -98.1991C-37.0497 -96.4606 -37.6283 -94.7222 -38.4963 -94.2876C-39.3643 -93.8529 -39.943 -91.3901 -39.943 -89.0722C-39.943 -84.4363 -45.0063 -73.2811 -47.1763 -73.2811C-49.057 -73.2811 -49.7803 -69.9491 -51.5163 -54.4478C-52.8183 -42.5683 -53.6863 -40.1055 -57.1583 -36.3388C-64.1023 -28.8055 -65.983 -24.4594 -66.9957 -13.594C-67.4297 -7.7991 -69.3103 0.313722 -71.191 4.37013C-74.5183 12.0483 -74.663 18.2778 -72.059 33.0547C-70.757 40.0086 -70.0337 40.8778 -62.6557 44.9342C-59.473 46.6727 -58.7497 47.9765 -58.7497 52.7573C-58.7497 55.7996 -59.473 58.8419 -60.1963 59.2765C-60.9197 59.7112 -61.643 61.3047 -61.643 62.7535C-61.643 64.2022 -62.945 67.0996 -64.5363 69.1278C-68.7317 74.3432 -68.153 79.7035 -63.0897 84.9188C-60.0517 87.8163 -58.7497 90.5688 -58.7497 93.756C-58.7497 99.406 -57.303 101.724 -52.8183 104.042C-50.359 105.201 -49.057 107.374 -48.623 110.851C-47.4657 118.819 -36.3263 132.437 -30.829 132.437C-28.9483 132.437 -25.187 134.175 -22.4383 136.203C-17.9537 139.68 -16.6517 139.825 -7.10366 139.246C7.94167 138.087 8.37568 138.666 7.50768 156.486C6.92901 165.612 5.91635 172.421 4.32501 175.174C3.02301 177.492 2.01035 180.244 2.01035 181.114C2.01035 181.838 0.563675 185.46 -1.17232 189.082C-3.92099 194.442 -4.49966 198.933 -5.22299 216.897C-5.80166 230.225 -6.81432 238.918 -7.82699 239.932C-10.7203 242.829 -9.85232 250.507 -6.23566 253.839C-4.35499 255.578 -1.89566 257.027 -0.593658 257.027C0.563675 257.027 4.18035 259.055 7.21835 261.518C10.9797 264.415 13.7283 265.574 15.7537 264.994C17.345 264.56 20.6723 263.835 23.1317 263.256C27.761 262.532 27.761 262.532 30.0757 270.934C34.5603 287.015 33.837 286.291 49.7503 288.753C56.839 289.912 58.141 289.768 61.0343 287.015C62.7703 285.421 64.217 283.248 64.217 282.234C64.217 281.22 65.8083 278.468 67.8337 276.15C69.859 273.832 73.331 268.182 75.7903 263.546C80.4197 254.853 85.3383 247.03 87.9423 244.712C90.691 242.25 95.465 234.861 98.937 228.052C100.673 224.43 103.566 219.939 105.302 217.911C110.366 212.261 115.14 199.368 116.008 189.371C116.876 178.651 113.404 164.453 108.34 157.789C105.447 154.023 101.975 143.447 96.1883 121.137C94.597 115.487 91.125 111.286 85.6277 108.388C75.7903 103.318 75.067 97.6676 81.143 72.315C86.0617 51.4535 87.3637 20.7406 83.6023 13.3522C82.3003 10.7445 75.6457 3.06629 68.7017 -3.59782L56.2603 -15.767L55.8263 -26.0529C55.2477 -37.6427 57.8517 -43.8722 67.1103 -54.0132C79.841 -67.6311 85.917 -82.4081 85.917 -99.0683C85.917 -108.34 85.1937 -111.382 82.3003 -116.598C80.275 -119.93 78.6837 -123.986 78.6837 -125.435C78.6837 -126.884 75.935 -130.216 72.6077 -132.968C65.3743 -138.763 54.8137 -141.081 50.329 -137.894Z" fill="#FAEADE"/>
<path d="M907.624 -85.5954C905.598 -84.4364 902.705 -82.9877 901.114 -82.1185C897.208 -80.38 892.723 -75.5992 884.911 -65.3133C876.81 -54.5928 874.206 -49.3774 873.627 -43.7274C872.036 -28.0813 869.576 -18.6646 865.96 -14.1736C858.148 -4.32231 858.148 -4.46719 860.028 -0.265903C861.475 2.92128 861.33 3.93538 859.16 6.3982C857.714 7.99179 855.399 9.29563 853.952 9.29563C852.072 9.29563 849.757 12.1931 846.719 18.2777C840.354 30.8815 836.737 35.3726 832.976 35.3726C831.24 35.3726 826.466 37.111 822.415 39.1392C817.062 41.8918 815.037 43.92 815.037 46.0931C815.037 53.4815 811.854 60.2905 807.08 63.0431C804.476 64.6367 801.872 67.3892 801.294 69.1277C800.136 72.3149 800.136 72.3149 799.558 68.8379C799.124 66.6649 799.702 64.6367 801.004 63.6226C803.753 61.5943 809.25 52.6123 809.25 50.0046C809.25 48.1213 814.314 37.111 820.245 26.2456C821.402 24.0726 822.994 19.002 823.572 14.9456C824.296 10.8892 825.453 6.97769 826.466 5.96358C827.334 5.09435 828.057 0.168712 828.057 -4.75693C828.057 -15.9121 825.308 -21.1274 819.522 -21.1274C816.339 -21.1274 814.892 -19.9685 812.433 -14.7531C810.697 -11.2762 809.25 -7.50949 809.25 -6.20565C809.25 -4.9018 806.936 -2.14924 804.332 -0.121031C798.834 4.08025 793.916 12.9174 792.469 20.8854C790.733 31.461 786.827 43.0508 783.934 46.0931C778.581 51.8879 776.411 56.2341 775.398 63.3328C774.53 69.4174 773.952 70.1418 771.492 69.4174C767.586 68.1136 763.391 73.6187 762.089 81.4418C761.655 84.7738 760.642 87.961 759.919 88.3956C759.196 88.8302 758.617 93.0315 758.617 97.6674C758.617 104.766 759.051 106.505 761.51 107.808C763.68 108.967 765.127 108.823 767.442 107.374C771.203 104.621 775.977 95.2046 775.977 90.4238C775.977 85.2085 777.134 84.3392 781.185 87.0918C785.67 89.9892 787.984 88.9751 791.456 82.311C796.23 72.8943 797.532 74.4879 797.098 89.5546C796.809 100.565 797.243 104.621 799.413 109.402C801.149 113.314 802.017 118.819 802.017 125.338C802.017 130.698 802.74 135.624 803.464 136.058C804.332 136.493 804.91 138.956 804.91 141.419C804.91 143.882 806.357 148.083 807.948 150.835C810.842 155.471 810.986 156.63 809.54 167.64C808.382 176.623 808.527 183.287 809.974 194.732C811.131 203.134 811.999 210.088 811.999 210.233C812.144 210.523 814.314 213.13 817.062 216.028C820.968 220.374 822.126 223.271 822.994 230.08C824.874 245.726 833.699 249.058 838.618 236.02C840.064 231.964 841.656 227.183 842.09 225.155C842.524 223.126 844.115 219.939 845.562 218.056C847.008 216.173 850.914 206.176 854.097 195.601C857.424 185.17 860.607 175.464 861.475 174.16C862.198 172.711 862.777 169.669 862.777 167.496C862.777 162.57 869.287 153.008 875.508 148.517C877.822 146.924 880.282 143.737 880.716 141.708C881.294 139.535 882.741 136.928 883.754 135.769C884.911 134.61 885.924 132.437 885.924 130.988C885.924 125.773 896.195 125.483 898.076 130.698C901.114 139.246 901.548 141.853 900.39 148.807C898.654 159.962 896.774 166.626 891.71 179.52C885.634 195.166 884.477 197.484 879.992 203.424C875.797 209.074 868.998 227.762 866.972 238.628C866.394 242.394 863.79 249.638 861.475 254.419C856.701 263.98 855.978 269.051 858.726 275.425C859.739 277.598 860.896 288.608 861.33 299.764L862.054 320.19L867.117 326.565C872.036 332.794 872.036 333.084 872.18 346.992C872.18 360.465 873.772 365.68 877.533 365.68C879.848 365.68 893.012 352.497 894.025 349.165C895.038 345.543 903.284 332.07 905.309 330.621C908.492 328.448 908.492 331.49 905.309 344.094C900.969 360.61 898.51 365.68 892.289 371.33C887.66 375.676 887.37 376.401 887.37 385.962C887.37 391.467 886.792 396.248 886.068 396.683C885.49 397.117 884.477 404.361 883.898 412.764C883.32 421.166 882.307 429.714 881.439 431.887C879.269 437.537 878.98 476.362 881.15 478.825C882.018 479.984 883.175 484.765 883.754 489.546C885.2 501.715 887.804 506.206 893.302 506.206C899.956 506.206 902.126 512.87 902.126 533.732C902.126 546.48 902.705 551.261 904.441 554.303C907.479 559.664 909.36 559.374 913.7 553.144C918.04 547.06 920.21 548.798 917.75 556.331C915.002 564.589 916.448 586.465 920.065 590.376C922.235 592.694 923.103 597.04 924.26 608.775C925.562 622.248 925.996 624.276 928.311 624.276C930.192 624.276 931.928 621.524 934.676 613.411C936.846 607.037 940.318 600.373 943.212 597.185C948.275 591.535 953.049 582.698 954.64 576.034C955.219 573.861 957.389 568.79 959.414 564.879C963.754 556.766 967.66 555.173 973.447 558.939C975.328 560.243 979.523 561.257 982.561 561.257C987.48 561.257 989.071 560.388 993.556 555.462C996.449 552.275 998.764 548.798 998.764 547.639C998.764 546.48 999.487 545.321 1000.21 545.032C1001.8 544.597 1007.44 523.735 1007.44 518.52C1007.44 516.926 1009.32 510.552 1011.78 504.467C1014.53 497.079 1016.27 489.546 1016.85 482.012C1018.15 462.02 1019.16 454.921 1021.19 448.257C1023.65 440.724 1029.14 416.24 1029.87 409.866C1030.16 407.403 1031.31 402.912 1032.18 399.58C1033.63 394.799 1033.63 391.612 1031.89 382.92C1030.45 374.952 1030.16 369.012 1031.17 359.596C1032.76 343.66 1029.29 310.049 1025.53 304.255C1023.21 300.778 1022.2 300.488 1013.09 300.488C1001.66 300.488 1001.08 299.764 1001.95 286.58C1002.38 279.771 1002.52 279.482 1007.01 279.047C1013.23 278.467 1017.28 273.107 1024.08 256.447C1028.85 244.857 1029.29 242.684 1028.85 232.543C1028.56 226.458 1027.41 218.49 1026.25 214.724C1024.37 208.494 1024.51 207.19 1027.12 199.657C1030.45 189.661 1033.77 186.908 1037.53 191.11C1039.85 193.717 1040.14 195.89 1039.13 213.565C1038.69 224.285 1037.53 235.73 1036.67 238.917C1035.8 242.105 1034.79 251.521 1034.5 259.924C1034.06 268.326 1033.05 277.453 1032.18 280.206C1029.58 288.464 1030.16 291.651 1034.21 292.665C1036.23 293.099 1038.69 295.273 1039.7 297.446C1041.01 300.198 1042.45 301.067 1045.06 300.778C1049.83 300.198 1050.84 298.17 1050.55 288.898C1050.26 282.379 1051.13 279.192 1055.04 271.514C1059.67 262.532 1059.81 261.373 1059.67 247.61C1059.38 237.758 1058.66 232.108 1057.21 229.935C1053.45 223.996 1055.47 209.074 1061.4 200.382C1063 197.919 1064.15 192.993 1064.44 186.619C1064.73 181.114 1065.74 174.594 1066.61 171.987C1068.64 166.771 1067.19 162.425 1062.42 159.962C1060.1 158.803 1059.52 156.92 1059.52 151.705C1059.52 146.344 1060.39 144.171 1064.01 139.97C1068.35 135.044 1068.49 134.61 1067.62 123.889C1066.18 105.056 1066.03 103.607 1064.15 101.724C1061.26 98.8264 1046.36 99.4059 1041.58 102.448C1036.52 105.78 1035.65 108.533 1037.24 114.907C1039.13 121.716 1038.26 125.193 1034.79 125.193C1031.46 125.193 1029.87 119.978 1031.02 111.865C1032.04 104.187 1029 99.1161 1023.36 99.1161C1021.19 99.1161 1018.58 100.13 1017.57 101.289C1016.56 102.448 1014.68 103.462 1013.37 103.462C1012.07 103.462 1009.18 104.476 1006.86 105.635C1004.69 106.794 1002.24 107.519 1001.66 107.084C1000.93 106.649 999.342 103.028 998.04 99.1161C996.738 95.2046 995.002 91.5828 994.279 91.1482C993.556 90.5687 992.977 78.1097 992.977 63.0431C992.977 37.6905 992.832 35.5174 989.939 31.8956C987.769 29.1431 986.178 28.2738 983.574 28.9982C981.838 29.4328 979.957 29.1431 979.378 28.4187C978.944 27.6944 975.038 28.8533 970.264 31.1713C965.635 33.4892 961.295 35.3726 960.427 35.3726C959.704 35.5174 957.678 37.2559 956.087 39.2841C947.841 49.8597 944.224 53.1918 941.765 52.3226C939.45 51.4533 939.161 49.4251 939.595 35.6623C939.74 27.1149 939.161 17.5533 938.293 14.3661C937.425 11.179 936.412 6.97769 935.978 4.94948C935.544 2.92128 931.928 -2.58385 927.877 -7.36462C923.971 -12.0005 920.644 -17.3608 920.644 -19.2441C920.644 -20.9826 922.958 -27.5018 925.852 -33.7313L931.06 -45.0313L930.047 -61.6915C928.89 -82.8428 926.43 -87.7685 917.316 -87.7685C913.989 -87.7685 909.649 -86.7544 907.624 -85.5954Z" fill="#FAEADE"/>
<path d="M681.654 -67.7764C679.484 -66.3277 675.868 -61.9815 673.842 -57.9251C671.672 -54.0136 669.068 -49.2328 668.056 -47.2046C666.898 -45.1764 666.03 -41.12 666.03 -38.2226C666.03 -35.3251 665.452 -31.4136 664.728 -29.5303C664.005 -27.6469 662.992 -24.4597 662.414 -22.1418C661.98 -19.9687 658.652 -15.4777 655.18 -12.1456C651.564 -8.66872 648.67 -5.1918 648.67 -4.17769C648.67 -3.16359 648.092 -1.13539 647.368 0.313332C646.5 1.61718 645.488 5.23897 645.054 8.13641C644.475 11.6133 643.318 13.7864 641.582 14.3659C635.94 16.1044 634.204 20.3056 632.034 36.2415C627.404 72.4595 625.379 82.8902 621.328 92.5967C619.882 96.2185 619.014 102.448 619.014 109.981C619.014 120.702 619.448 122.295 623.064 127.076C626.247 131.277 626.97 133.74 626.97 140.259C626.97 147.503 627.549 148.952 632.034 154.022C635.94 158.368 637.097 160.831 637.097 165.322C637.097 171.697 639.122 174.449 643.752 174.449C647.079 174.449 651.564 167.206 651.564 161.845C651.564 158.658 655.759 154.167 658.652 154.167C659.52 154.167 661.98 152.429 663.86 150.401C666.609 147.358 667.477 144.895 667.477 139.825C667.477 132.292 668.056 131.422 680.931 123.744C685.56 120.992 690.19 117.37 691.202 115.776C694.385 110.706 697.712 97.3774 698.436 85.7877C698.87 77.2403 700.027 72.8941 703.065 67.389C706.537 60.8697 706.826 59.1313 706.103 49.5697C705.235 38.2697 707.116 25.8108 710.154 22.3338C712.468 19.7262 713.626 6.25307 714.638 -26.9226C715.651 -59.8085 713.047 -67.7764 701.04 -68.211C698.146 -68.3559 693.372 -68.9354 690.624 -69.5149C686.862 -70.2392 684.548 -69.8046 681.654 -67.7764Z" fill="#FAEADE"/>
<path d="M452.647 -36.9181C448.741 -35.904 445.269 -33.5861 441.508 -29.3848C438.47 -26.0527 436.01 -22.8656 436.01 -22.2861C436.01 -21.7066 432.104 -14.7527 427.33 -6.92966C422.556 1.03828 418.65 8.137 418.65 9.00623C418.65 10.5998 409.392 17.9883 407.222 17.9883C404.762 17.9883 403.026 22.7691 402.014 32.4755C401.001 41.0229 399.554 47.687 395.359 60.8703C394.636 63.3332 393.912 72.4601 393.768 81.1524C393.623 99.8409 392.321 103.752 382.628 114.618C372.936 125.483 371.634 128.815 368.74 149.532C365.413 173.001 366.281 187.054 371.634 197.774C373.948 202.12 376.263 207.481 376.842 209.943C377.42 212.261 380.024 219.795 382.484 226.604C385.088 233.413 387.981 242.105 389.138 246.161C394.202 265.429 396.806 277.019 396.95 280.931C397.095 287.305 398.831 289.478 402.882 288.174C409.97 286.001 413.008 280.931 418.072 263.546C420.82 253.84 428.777 243.988 433.84 243.988C435.576 243.988 438.036 245.147 439.193 246.451C444.69 252.825 445.414 256.013 445.558 280.351C445.848 301.647 446.282 305.124 448.886 310.34C452.358 317.149 455.83 319.611 459.302 317.873C460.604 317.149 464.51 311.788 467.982 305.993C471.454 300.199 475.36 294.259 476.662 292.81C477.964 291.361 481.436 284.118 484.474 276.874C487.367 269.486 490.694 261.373 491.852 258.765C493.009 256.158 493.877 251.232 493.877 247.755C493.877 243.409 494.745 240.801 496.77 238.918C498.362 237.469 499.808 236.6 500.098 236.89C505.74 244.713 506.029 246.017 506.463 270.065C506.752 293.245 509.067 308.601 513.986 321.205C514.854 323.523 515.577 327.869 515.577 331.056C515.577 338.01 521.364 347.861 526.572 349.745C528.597 350.614 531.78 350.759 533.805 350.324C539.013 349.02 545.957 339.893 545.957 334.388C545.957 331.925 547.259 325.406 548.85 319.901C550.586 314.396 552.612 307.297 553.48 304.11C555.071 298.75 559.845 289.043 561.87 287.45C562.449 287.015 564.04 283.828 565.487 280.206C567.802 274.556 568.091 269.051 568.236 238.918C568.38 212.986 568.959 203.279 570.406 200.672C572.72 196.47 572.865 136.349 570.55 129.974C569.682 127.801 566.644 122.586 563.896 118.529C559.266 111.865 557.964 110.996 551.02 109.402C546.68 108.388 542.774 106.94 542.34 106.215C536.988 97.8126 513.262 131.278 508.344 154.168C507.331 158.514 505.306 164.164 503.859 166.627C501.544 170.538 501.11 174.16 501.11 193.863C501.11 206.322 500.532 216.463 499.953 216.463C498.362 216.463 495.468 199.223 494.456 183.866C493.877 174.884 494.311 167.786 495.758 160.832C497.638 151.995 497.783 149.097 495.758 136.204C494.6 128.091 492.43 119.254 490.839 116.356C487.367 109.547 487.367 107.229 491.128 99.4062C493.877 94.046 494.166 91.728 493.154 83.4703C492.575 78.1101 491.852 65.2165 491.562 54.9306C490.839 24.7973 487.078 1.03828 480.134 -18.954C474.347 -35.6143 472.032 -38.5117 464.51 -38.3668C461.182 -38.222 455.83 -37.6425 452.647 -36.9181Z" fill="#FAEADE"/>
<path d="M246.497 110.995C246.497 112.01 244.472 116.79 242.157 121.571C239.842 126.352 237.817 130.988 237.817 131.712C237.817 132.581 235.936 134.899 233.622 136.927C230.873 139.39 227.256 146.054 222.916 156.92C214.381 178.216 211.343 180.679 201.94 173.435C197.744 170.393 196.442 169.958 194.272 171.262C192.826 172.276 190.8 173.001 189.788 173.001C187.184 173.001 179.95 180.534 179.95 183.286C179.95 184.735 179.372 186.039 178.504 186.329C176.478 187.053 171.415 202.12 171.126 208.639C170.836 214.579 167.509 226.024 162.88 236.744C160.854 241.67 159.986 247.899 159.408 261.662C158.974 271.803 157.961 280.93 157.238 281.944C156.37 282.958 155.212 286.725 154.634 290.347C153.621 297.445 152.753 300.922 148.558 314.25C146.243 321.929 145.954 327.868 146.243 368.867C146.388 408.707 146.822 415.806 148.992 421.745C152.753 432.031 153.91 432.9 165.05 432.9L174.887 433.045L175.755 441.013C177.202 452.748 176.189 455.5 170.836 455.5C166.062 455.5 158.25 461.585 158.25 465.207C158.25 466.366 156.37 471.291 154.055 476.217C147.4 490.849 146.098 495.775 147.834 501.715C151.162 513.304 152.464 527.212 150.728 533.152C148.558 540.395 145.375 544.162 141.758 543.583C138.865 543.148 138.72 541.989 138.286 524.459C137.997 511.566 138.576 503.453 140.022 498.383C141.18 494.326 142.482 482.447 143.06 472.161C143.639 461.73 144.652 452.603 145.52 451.589C146.243 450.72 146.677 447.677 146.388 445.07C146.098 441.448 145.23 440.144 142.916 439.854C141.18 439.565 139.154 437.826 138.286 435.798C137.129 433.48 135.393 432.321 133.078 432.321C128.738 432.321 125.7 438.985 127.002 445.649C128.015 451.154 124.543 461.585 119.48 467.815C116.586 471.291 116.152 473.03 117.02 477.956C117.454 481.143 117.888 486.213 117.744 489.256C117.744 492.298 118.612 498.527 119.914 503.018C122.807 512.87 121.939 521.127 116.731 532.138C114.706 536.484 112.825 543.293 112.536 547.349C112.391 551.406 111.668 558.07 111.234 561.981C110.366 568.5 110.655 569.515 113.982 572.702C118.901 577.338 119.19 586.32 114.706 591.1C110.076 596.026 109.064 603.849 110.944 618.481L112.68 631.52L118.612 633.548C123.964 635.431 125.122 635.286 131.198 632.824C139.154 629.491 141.035 626.015 139.878 616.308C139.01 609.065 139.154 608.775 142.482 609.354C145.664 609.789 145.954 610.513 146.388 619.93C146.822 630.071 149.136 635.141 153.476 635.141C154.489 635.141 157.816 633.548 160.854 631.809C169.1 626.594 174.887 625.87 177.346 629.781C183.567 639.488 184.724 646.586 184.869 673.532C185.014 693.525 185.448 700.479 187.039 702.217C189.209 704.97 199.914 705.549 204.254 703.376C205.556 702.652 209.752 700.768 213.513 699.03C218.142 696.857 222.482 693.09 226.533 687.875C235.792 675.995 236.949 677.154 237.962 699.609C239.119 724.672 242.157 735.248 249.68 740.608C252.862 742.926 256.624 749.88 256.624 753.647C256.624 755.095 254.309 760.745 251.56 766.395C247.076 775.377 246.497 777.55 246.642 787.981C246.642 803.482 248.378 812.754 251.85 817.39C254.454 820.722 255.756 821.302 261.108 820.867C268.486 820.432 280.638 813.768 284.834 808.118C286.425 805.945 290.042 801.309 292.935 797.832C301.036 787.981 304.364 780.158 304.364 770.886C304.364 766.395 304.942 762.484 305.666 762.049C306.244 761.615 307.257 758.572 307.691 755.385C308.125 751.763 310.15 747.707 312.899 744.52C316.371 740.608 317.384 738 317.384 733.509C317.384 727.57 321.29 722.209 325.63 722.065C326.642 722.065 330.114 716.559 333.442 709.75C339.084 698.016 339.662 697.436 344.147 697.436C355.865 697.436 362.809 691.207 364.256 679.617C365.268 672.229 365.702 671.215 369.174 670.345C371.344 669.911 373.514 668.752 374.093 667.883C374.672 667.013 375.54 666.724 375.974 667.303C376.408 667.738 374.816 671.07 372.357 674.691C370.042 678.313 368.017 682.659 368.017 684.398C368.017 686.281 365.124 692.511 361.507 698.595C357.022 705.984 354.997 711.054 354.997 714.676C354.852 717.574 353.695 722.499 352.104 725.686C349.066 731.916 348.342 742.781 350.657 748.721C352.248 752.922 356.733 755.675 359.916 754.516C362.954 753.357 368.017 744.954 368.017 741.188C368.017 739.449 370.766 735.393 374.238 731.916C380.748 725.397 383.062 720.181 387.692 701.058C389.428 693.815 391.453 689.468 394.78 685.847C399.554 680.631 402.303 674.836 403.026 668.462C403.316 665.854 404.473 664.695 407.222 664.406C411.272 663.971 413.876 659.19 416.914 646.297C420.386 632.099 418.072 623.697 411.128 625.435C407.077 626.449 402.592 634.852 401.435 644.124L400.567 649.918L396.516 646.731C393.044 643.979 392.176 643.834 390.151 645.572C388.849 646.586 386.968 649.629 385.811 652.091C382.484 660.204 381.037 657.597 381.037 643.399C381.037 632.824 380.458 628.767 378.144 624.276C376.552 621.089 375.25 615.729 375.25 611.962C375.106 599.503 372.646 587.768 368.885 581.684C365.558 576.613 365.268 575.165 366.86 572.412C367.872 570.384 368.451 562.706 368.451 551.116C368.306 531.993 367.294 528.226 357.89 512C356.299 509.248 354.997 505.481 354.997 503.743C354.997 498.672 350.512 490.559 347.185 489.69C343.279 488.531 339.662 492.877 337.492 500.845C336.624 504.177 334.454 509.683 332.574 513.015C330.693 516.347 328.812 521.127 328.234 523.59C327.655 525.908 326.642 528.226 325.919 528.661C325.196 529.24 324.617 531.413 324.617 533.586C324.617 535.904 323.749 538.512 322.592 539.381C321.434 540.395 320.132 544.452 319.554 548.653C318.975 552.709 317.962 557.056 317.239 558.359C316.66 559.518 315.648 562.995 315.214 565.893C314.635 569.804 312.176 573.861 306.678 579.656C302.483 584.291 297.564 591.1 295.684 595.012C290.765 605.008 288.161 607.036 282.808 604.863C278.179 602.835 276.877 599.068 276.877 587.334C276.877 580.815 280.928 565.024 284.834 556.186C285.846 553.724 288.45 548.218 290.331 543.872C292.356 539.381 295.539 533.441 297.42 530.689C300.892 525.474 306.389 509.827 310.874 491.718C312.32 486.503 314.056 481.288 315.069 480.129C320.711 472.885 321.145 469.408 317.528 451.879C316.805 447.822 316.082 438.261 316.082 430.438C315.937 415.516 314.49 410.445 308.125 403.636C305.521 400.739 304.942 397.842 304.364 384.803C303.64 370.461 303.351 369.302 300.602 368.867C296.407 368.288 286.57 378.284 282.085 387.7C278.758 394.799 272.392 403.347 270.367 403.347C269.065 403.347 269.644 397.552 271.669 390.598C272.826 386.831 274.562 380.602 275.72 376.69C277.022 371.475 279.192 368.143 283.821 364.231C289.752 358.871 289.897 358.581 289.897 349.454C289.897 344.384 290.765 337.285 291.922 333.663C293.08 330.186 294.382 320.77 294.816 312.657C295.25 304.544 296.262 295.127 297.13 291.506C300.168 279.771 297.13 250.362 291.199 233.122C289.318 227.907 288.595 227.327 283.966 226.893C279.192 226.458 278.613 225.879 276.732 220.374C275.72 217.042 274.418 206.176 273.984 196.325C273.405 181.548 272.826 178.071 270.801 176.767C268.92 175.608 267.618 175.898 264.87 178.506C262.989 180.244 261.253 181.693 260.819 181.693C260.53 181.693 260.24 173.58 260.24 163.729C260.24 146.344 260.096 145.765 256.624 142.867C253.296 140.26 253.007 138.811 252.862 128.235C252.718 121.716 252.139 114.907 251.705 112.879C250.837 109.257 246.497 107.808 246.497 110.995Z" fill="#FAEADE"/>
<path d="M653.155 256.012C648.815 259.199 646.211 262.386 645.343 265.574C644.764 268.181 642.45 273.107 640.424 276.294C638.399 279.626 636.084 284.552 635.506 287.304C633.625 295.852 638.399 326.13 643.028 335.547C643.752 336.995 644.33 339.603 644.33 341.486C644.33 343.37 646.356 347.571 648.815 350.903C651.274 354.38 653.589 359.595 654.023 362.783C654.602 366.984 656.048 369.736 659.376 372.344C670.949 381.761 675 385.817 680.063 392.771C684.403 398.711 686.428 400.449 689.611 400.449C691.781 400.449 693.517 399.725 693.517 399.001C693.517 396.972 698.725 397.117 702.631 399.29C704.367 400.16 709.43 403.636 713.77 406.968C718.11 410.301 724.042 414.067 726.79 415.371C733.011 417.979 756.302 419.862 759.919 417.834C761.366 417.11 763.97 413.053 765.85 408.997C770.335 398.421 769.612 384.224 764.259 377.125C760.642 372.344 751.962 354.815 748.78 346.122C747.912 343.66 746.899 339.024 746.61 335.692C745.742 328.303 740.823 317.583 736.483 313.671C733.156 310.629 722.595 302.081 715.072 296.286C712.613 294.258 708.562 290.057 706.248 286.87C700.75 279.192 686.284 264.27 684.258 264.27C683.535 264.27 680.063 261.662 676.736 258.33C668.345 250.072 661.98 249.493 653.155 256.012Z" fill="#FAEADE"/>
<path d="M34.2709 393.351C26.1696 396.538 21.9743 401.609 20.0936 410.591C19.5149 413.343 18.5023 416.241 17.9236 417.11C17.3449 417.834 16.3323 421.891 15.7536 425.947C14.7409 434.35 16.6216 437.247 23.2763 436.378C27.0376 435.943 27.3269 436.233 26.8929 441.014C24.7229 467.091 24.5783 465.932 28.1949 465.352C31.6669 464.918 41.6489 450.286 43.3849 442.897C43.9636 440.724 47.0016 434.06 50.0396 427.975C57.4176 413.633 59.8769 406.824 59.8769 399.436C59.8769 392.771 59.5876 392.627 48.3036 391.178C43.6743 390.598 39.6236 391.323 34.2709 393.351Z" fill="#FAEADE"/>
<path d="M633.914 414.068C631.6 416.241 629.14 422.036 627.838 428.12C627.26 430.873 625.813 432.177 623.064 432.756C616.41 434.205 615.252 435.799 614.384 444.781C613.372 454.777 611.491 457.384 601.509 462.165C597.458 464.049 593.118 466.801 591.672 468.395C588.055 472.306 583.57 486.359 583.57 493.747C583.57 502.874 580.822 514.754 577.639 520.259C575.324 524.025 574.89 527.213 575.18 539.092C575.324 550.392 574.746 554.883 572.431 561.258C568.236 572.702 565.776 598.779 566.5 624.277C567.223 651.513 568.38 653.975 580.098 653.975C584.294 653.975 588.2 654.555 588.634 655.424C589.936 657.452 596.88 657.163 599.918 654.7C606.138 650.064 614.674 631.375 615.976 619.496C617.133 608.775 620.171 603.125 627.115 598.49C631.166 595.737 632.323 593.854 633.625 586.9C635.506 577.483 638.544 571.978 642.739 570.674C644.62 570.095 645.922 568.067 646.356 565.169C646.79 562.561 647.802 555.897 648.67 550.392C652.287 526.488 657.35 500.556 659.665 493.168C663.282 481.288 663.86 472.161 661.112 466.511C659.81 463.759 658.797 461.006 658.797 460.137C658.797 459.413 657.784 457.964 656.627 456.95C655.18 455.791 654.457 452.459 654.457 446.664C654.457 439.42 653.878 437.682 650.551 434.64C647.947 432.177 645.922 427.976 644.33 421.891C642.594 414.647 641.437 412.619 638.978 412.329C637.386 412.04 635.072 412.909 633.914 414.068Z" fill="#FAEADE"/>
<path d="M73.6202 435.943C71.3056 437.102 67.5442 438.261 65.3742 438.695C62.3362 439.42 60.7449 441.448 57.7069 447.967C55.6816 452.458 52.9329 458.108 51.9202 460.571C50.7629 462.889 49.4609 467.235 49.0269 469.988C48.5929 472.74 46.7122 477.956 44.8316 481.577C32.9689 504.177 33.9816 500.845 33.8369 522.866C33.8369 549.088 37.7429 561.257 46.4229 561.257C51.0522 561.257 55.6816 550.826 56.6942 537.643C57.4176 528.081 57.5622 527.647 66.5316 517.65C71.4502 512 78.1049 503.743 81.1429 499.252L86.6402 490.994L87.0742 466.076L87.6529 441.158L83.8916 437.391C79.6962 433.335 79.5516 433.19 73.6202 435.943Z" fill="#FAEADE"/>
<path d="M804.042 487.082C802.451 488.097 796.086 498.527 793.482 504.032C792.758 505.626 790.444 508.523 788.418 510.407C786.393 512.435 784.657 514.608 784.657 515.332C784.657 516.636 782.198 522.721 778.147 531.558C773.084 542.423 770.19 551.695 770.19 557.055C770.19 560.243 769.178 564.444 767.876 566.327C765.416 570.094 765.706 585.595 768.888 612.396C769.756 620.075 770.046 629.491 769.467 633.258C766.14 658.031 767.731 682.37 773.228 690.482C776.845 695.553 776.7 699.609 772.939 705.694C770.046 710.33 769.901 711.634 771.058 728.294C771.782 738 772.216 747.852 772.071 750.314C771.637 756.979 775.688 797.108 777.134 800.005C777.858 801.309 778.87 805.511 779.449 809.132C780.751 817.535 787.261 834.775 791.167 839.555C795.362 844.771 798.111 845.35 808.238 843.032C818.798 840.57 824.006 835.644 830.95 821.302C833.41 816.376 836.592 811.161 838.039 809.857C839.63 808.408 842.234 804.062 843.826 800.15C846.14 795.08 848.455 792.182 852.65 789.864C859.16 786.098 862.777 778.999 862.777 770.017C862.777 766.975 863.79 761.325 865.092 757.413C868.708 745.534 870.3 735.248 871.023 718.008L871.602 701.493L878.112 695.118C881.584 691.496 884.477 688.164 884.477 687.44C884.477 686.861 885.634 685.267 887.081 683.818C892 679.472 895.761 661.508 897.063 635.431C897.642 624.276 897.208 620.799 894.604 613.845C892.868 609.209 890.987 604.863 890.264 603.994C889.685 603.27 888.528 600.227 887.66 597.475C886.792 594.722 884.477 587.768 882.307 582.263C875.942 565.313 870.155 543.438 868.708 530.689C867.406 519.389 866.538 517.795 862.198 517.795C858.726 517.795 849.757 525.618 849.757 528.661C849.757 534.455 843.102 550.536 838.473 555.462C832.542 562.271 830.082 562.561 824.296 557.635L820.1 554.013L819.232 529.095C818.364 502.294 817.062 495.775 811.42 489.69C807.804 485.779 806.646 485.344 804.042 487.082Z" fill="#FAEADE"/>
<path d="M-23.1615 672.229C-23.5955 673.533 -24.0295 676.43 -24.0295 678.748C-24.0295 681.935 -24.7528 682.95 -26.9228 682.95C-28.5142 682.95 -30.2502 684.108 -30.8288 685.412C-31.2628 686.861 -32.8542 690.628 -34.1562 693.815C-35.6028 697.002 -37.1942 703.666 -37.6282 708.737C-38.2068 713.662 -40.0875 722.644 -42.1128 728.584C-47.3208 744.81 -47.6102 747.997 -45.0062 762.049C-41.8235 779.869 -40.3768 783.635 -36.3262 785.808C-34.3008 786.823 -32.7095 788.271 -32.7095 788.851C-32.7095 789.43 -31.6968 790.879 -30.5395 792.183C-27.9355 794.646 -20.9915 793.197 -16.6515 789.285C-14.1922 787.112 -13.7582 787.112 -10.1415 790.01C-7.97151 791.748 -5.80151 793.052 -5.07817 793.052C-2.47417 793.052 0.563826 788.126 0.563826 783.78C0.563826 781.317 1.14249 778.565 1.72116 777.696C2.44449 776.971 4.18049 773.205 5.62716 769.293C8.66516 760.891 7.94183 749.591 3.60183 740.464C2.15516 737.132 -0.0148407 730.612 -0.882841 725.832C-1.89551 721.196 -3.77617 713.517 -5.36751 709.026C-6.81417 704.535 -8.26084 695.843 -8.55017 690.048C-8.98417 681.356 -9.70751 678.314 -12.4562 674.547C-16.2175 669.476 -21.7148 668.317 -23.1615 672.229Z" fill="#FAEADE"/>
</g>
</g>
<defs>
<filter id="filter0_f_2266_287" x="-125.693" y="-402.142" width="1277.51" height="1508.79" filterUnits="userSpaceOnUse" color-interpolation-filters="sRGB">
<feFlood flood-opacity="0" result="BackgroundImageFix"/>
<feBlend mode="normal" in="SourceGraphic" in2="BackgroundImageFix" result="shape"/>
<feGaussianBlur stdDeviation="125" result="effect1_foregroundBlur_2266_287"/>
</filter>
<clipPath id="clip0_2266_287">
<rect width="1024" height="677" rx="40" fill="white"/>
</clipPath>
<clipPath id="clip1_2266_287">
<rect width="1302" height="1130" fill="white" transform="translate(-168.696 -205.114)"/>
</clipPath>
</defs>
</svg>
