<svg width="151" height="151" viewBox="0 0 151 151" fill="none" xmlns="http://www.w3.org/2000/svg">
<path opacity="0.6" d="M134.193 79.937L134.275 78.7527L128.433 78.3463L128.615 75.721L147.269 77.0184L147.005 80.8083C146.922 82.0058 146.534 82.9177 145.843 83.544C145.151 84.1703 144.2 84.4413 142.99 84.3571L137.779 83.9947C136.594 83.9123 135.678 83.4916 135.03 82.7324C134.395 81.9742 134.116 81.0424 134.193 79.937ZM136.479 79.8581C136.449 80.2923 136.564 80.6375 136.824 80.8936C137.097 81.1506 137.49 81.2969 138.003 81.3326L143.096 81.6868C143.596 81.7216 143.986 81.6297 144.266 81.4112C144.558 81.1935 144.72 80.8676 144.75 80.4333L144.816 79.4858L136.545 78.9106L136.479 79.8581Z" fill="#FAEADE"/>
<path opacity="0.6" d="M129.628 86.6714L128.987 89.8324L126.757 89.3805L127.92 83.6402L146.247 87.3539L145.724 89.9331L129.628 86.6714Z" fill="#FAEADE"/>
<path opacity="0.6" d="M124.965 94.5728L129.11 95.5441L130.058 92.92L126.167 91.0942L127.046 88.5507L143.866 97.1255L142.587 100.829L124.073 97.1537L124.965 94.5728ZM132.112 93.8811L131.356 96.0692L137.729 97.5592L140.832 98.2125L140.89 98.0442L138.046 96.6428L132.112 93.8811Z" fill="#FAEADE"/>
<path opacity="0.6" d="M131.533 104.902L133.528 106.471L138.28 110.116L136.968 112.69L126.534 103.626L121.843 101.195L123.054 98.8582L127.797 101.317L141.157 104.609L139.783 107.217L134.056 105.452L131.624 104.727L131.533 104.902Z" fill="#FAEADE"/>
<path opacity="0.6" d="M128.993 123.219L127.197 125.328L114.524 111.338L117.077 108.341L132.878 118.626L131.082 120.735L122.117 114.478L118.575 112.137L118.446 112.287L121.347 115.381L128.993 123.219Z" fill="#FAEADE"/>
<path opacity="0.6" d="M125.394 126.928L123.474 128.727L110.691 115.08L112.612 113.281L125.394 126.928Z" fill="#FAEADE"/>
<path opacity="0.6" d="M117.515 133.541C116.608 134.201 115.701 134.445 114.793 134.273C113.885 134.102 113.063 133.509 112.326 132.496L105.912 123.679C105.175 122.666 104.865 121.701 104.981 120.784C105.097 119.868 105.609 119.08 106.516 118.42L109.7 116.104L120.699 131.225L117.515 133.541ZM107.905 121.911L114.633 131.16C114.881 131.502 115.161 131.706 115.471 131.774C115.781 131.842 116.075 131.775 116.352 131.573L117.233 130.933L108.91 119.492L108.046 120.121C107.769 120.322 107.615 120.581 107.584 120.897C107.542 121.221 107.649 121.559 107.905 121.911Z" fill="#FAEADE"/>
<path opacity="0.6" d="M101.242 124.382L98.2494 125.961L97.1873 123.948L102.507 121.141L111.235 137.678L105.95 140.467L104.888 138.454L107.845 136.894L105.195 131.871L102.482 133.303L101.439 131.325L104.151 129.894L101.242 124.382Z" fill="#FAEADE"/>
<path opacity="0.6" d="M99.2465 143.305C98.076 143.715 97.0619 143.692 96.2042 143.237C95.334 142.787 94.6855 141.952 94.2588 140.731L90.6728 130.477C90.2417 129.245 90.2261 128.181 90.626 127.286C91.0259 126.392 91.8048 125.742 92.9628 125.337C94.1209 124.932 95.1287 124.957 95.9865 125.412C96.8442 125.866 97.4886 126.71 97.9197 127.943L101.506 138.197C101.933 139.417 101.952 140.472 101.565 141.363C101.177 142.253 100.405 142.9 99.2465 143.305ZM93.045 129.228L96.8922 140.23C97.0316 140.628 97.2422 140.911 97.5242 141.078C97.8062 141.245 98.1153 141.269 98.4515 141.152C98.7877 141.034 99.0202 140.82 99.1492 140.509C99.2781 140.199 99.2729 139.844 99.1336 139.446L95.2863 128.445C95.1469 128.046 94.9279 127.759 94.6291 127.584C94.3347 127.422 94.0256 127.397 93.7019 127.51C93.3657 127.628 93.1393 127.84 93.0228 128.146C92.8982 128.469 92.9056 128.83 93.045 129.228Z" fill="#FAEADE"/>
<path opacity="0.6" d="M70.9253 134.219L72.1099 134.297L72.4938 128.452L75.1198 128.625L73.8943 147.283L70.1034 147.034C68.9056 146.956 67.9922 146.572 67.3632 145.883C66.7343 145.194 66.4596 144.244 66.5391 143.033L66.8815 137.82C66.9593 136.635 67.3765 135.718 68.1331 135.067C68.8889 134.429 69.8196 134.146 70.9253 134.219ZM71.0131 136.505C70.5787 136.477 70.234 136.593 69.9789 136.854C69.7229 137.128 69.5781 137.521 69.5444 138.035L69.2098 143.129C69.1769 143.629 69.2703 144.018 69.49 144.297C69.7088 144.589 70.0353 144.749 70.4697 144.778L71.4174 144.84L71.9608 136.567L71.0131 136.505Z" fill="#FAEADE"/>
<path opacity="0.6" d="M64.2011 129.682L61.0353 129.065L61.4702 126.832L67.2191 127.951L63.6456 146.305L61.0624 145.802L64.2011 129.682Z" fill="#FAEADE"/>
<path opacity="0.6" d="M56.3566 125.085L55.4165 129.237L58.0477 130.166L59.8442 126.261L62.3942 127.121L53.9463 144.005L50.2337 142.754L53.7691 124.213L56.3566 125.085ZM57.1021 132.227L54.9084 131.488L53.4664 137.872L52.8365 140.979L53.0052 141.036L54.3852 138.181L57.1021 132.227Z" fill="#FAEADE"/>
<path opacity="0.6" d="M46.0507 131.699L44.4966 133.706L40.8873 138.485L38.3037 137.192L47.2901 126.691L49.6866 121.983L52.0319 123.176L49.6085 127.938L46.4154 141.321L43.7969 139.966L45.5194 134.227L46.2271 131.789L46.0507 131.699Z" fill="#FAEADE"/>
<path opacity="0.6" d="M27.7715 129.301L25.6495 127.52L39.5461 114.746L42.5624 117.277L32.3921 133.153L30.27 131.372L36.4622 122.361L38.7773 118.802L38.6257 118.675L35.5528 121.598L27.7715 129.301Z" fill="#FAEADE"/>
<path opacity="0.6" d="M23.9824 125.67L22.1764 123.756L35.7771 110.924L37.5831 112.838L23.9824 125.67Z" fill="#FAEADE"/>
<path opacity="0.6" d="M17.3965 117.914C16.7303 117.012 16.4797 116.107 16.6446 115.198C16.8096 114.289 17.396 113.462 18.404 112.717L27.1737 106.24C28.1817 105.495 29.1444 105.178 30.0617 105.287C30.979 105.397 31.7708 105.903 32.437 106.805L34.7765 109.972L19.736 121.081L17.3965 117.914ZM28.9559 108.22L19.7565 115.015C19.417 115.266 19.2144 115.546 19.1488 115.857C19.0833 116.168 19.1523 116.461 19.3561 116.737L20.0027 117.613L31.3826 109.207L30.7477 108.348C30.544 108.072 30.2839 107.919 29.9675 107.891C29.6433 107.851 29.3061 107.961 28.9559 108.22Z" fill="#FAEADE"/>
<path opacity="0.6" d="M26.4388 101.568L24.8485 98.581L26.8569 97.5115L29.6842 102.821L13.1798 111.61L10.3711 106.335L12.3796 105.266L13.9513 108.217L18.9638 105.548L17.5222 102.841L19.4958 101.79L20.9373 104.497L26.4388 101.568Z" fill="#FAEADE"/>
<path opacity="0.6" d="M7.53276 99.7832C7.11464 98.6158 7.12968 97.6016 7.57788 96.7404C8.02164 95.8669 8.85203 95.2121 10.0691 94.7762L20.2959 91.1132C21.5253 90.6728 22.5888 90.6492 23.4863 91.0424C24.3837 91.4355 25.0393 92.2096 25.453 93.3645C25.8666 94.5194 25.8494 95.5275 25.4012 96.3886C24.953 97.2498 24.1141 97.9005 22.8847 98.3409L12.6579 102.004C11.4408 102.44 10.3858 102.467 9.4928 102.087C8.59978 101.706 7.94644 100.938 7.53276 99.7832ZM21.5625 93.4759L10.5906 97.4058C10.1932 97.5482 9.91209 97.7609 9.7473 98.0441C9.58252 98.3274 9.56017 98.6366 9.68027 98.9719C9.80037 99.3072 10.0162 99.5382 10.3278 99.6648C10.6394 99.7914 10.9938 99.7835 11.3912 99.6412L22.3632 95.7113C22.7606 95.5689 23.0457 95.3477 23.2184 95.0476C23.3787 94.752 23.4011 94.4427 23.2854 94.1199C23.1653 93.7845 22.9517 93.5598 22.6446 93.4456C22.3206 93.3235 21.9599 93.3336 21.5625 93.4759Z" fill="#FAEADE"/>
<path opacity="0.6" d="M16.3987 71.435L16.3301 72.6202L22.1772 72.959L22.025 75.5862L3.35761 74.5046L3.57737 70.7119C3.64681 69.5135 4.02363 68.5972 4.70783 67.9629C5.39204 67.3287 6.33993 67.0467 7.55149 67.1169L12.7665 67.419C13.9517 67.4877 14.8727 67.8978 15.5295 68.6494C16.1731 69.4002 16.4628 70.3287 16.3987 71.435ZM14.1133 71.5404C14.1385 71.1058 14.0197 70.762 13.7569 70.5089C13.4809 70.2551 13.0861 70.1133 12.5725 70.0835L7.47599 69.7882C6.97556 69.7592 6.58679 69.8556 6.30967 70.0774C6.01938 70.2984 5.86165 70.6262 5.83647 71.0608L5.78153 72.009L14.0584 72.4886L14.1133 71.5404Z" fill="#FAEADE"/>
<path opacity="0.6" d="M20.881 64.653L21.4853 61.4849L23.7205 61.9112L22.6231 67.6644L4.25556 64.1611L4.74863 61.576L20.881 64.653Z" fill="#FAEADE"/>
<path opacity="0.6" d="M25.3686 56.9037L21.21 55.995L20.3012 58.633L24.2193 60.4L23.379 62.9565L6.43102 54.6361L7.65446 50.9142L26.2213 54.3097L25.3686 56.9037ZM18.2324 57.7031L18.9554 55.5038L12.5609 54.11L9.44855 53.5035L9.39294 53.6727L12.2582 55.0311L18.2324 57.7031Z" fill="#FAEADE"/>
<path opacity="0.6" d="M18.746 46.4638L16.7337 44.9171L11.9411 41.3255L13.2244 38.7372L23.7592 47.6847L28.4763 50.0637L27.2913 52.4134L22.5211 50.0077L9.12568 46.8642L10.471 44.2406L16.217 45.9418L18.6569 46.6405L18.746 46.4638Z" fill="#FAEADE"/>
<path opacity="0.6" d="M21.0479 28.1342L22.8209 26.0057L35.6458 39.8558L33.1257 42.8813L17.2133 32.7688L18.9863 30.6403L28.0194 36.7996L31.5871 39.1017L31.7137 38.9497L28.7793 35.8874L21.0479 28.1342Z" fill="#FAEADE"/>
<path opacity="0.6" d="M24.5514 24.4129L26.4524 22.5931L39.383 36.1001L37.482 37.92L24.5514 24.4129Z" fill="#FAEADE"/>
<path opacity="0.6" d="M32.1673 17.8329C33.0643 17.1602 33.9679 16.903 34.8781 17.0613C35.7883 17.2196 36.6194 17.8 37.3713 18.8025L43.9128 27.5247C44.6647 28.5272 44.9892 29.4875 44.8863 30.4056C44.7834 31.3238 44.2834 32.1192 43.3864 32.7919L40.2363 35.1545L29.0172 20.1955L32.1673 17.8329ZM41.946 29.3213L35.0839 20.1718C34.8306 19.8341 34.5483 19.6336 34.237 19.5702C33.9257 19.5069 33.6329 19.5782 33.3585 19.7839L32.4879 20.4369L40.9764 31.7551L41.8312 31.114C42.1056 30.9082 42.256 30.647 42.2823 30.3304C42.3193 30.0059 42.2071 29.6696 41.946 29.3213Z" fill="#FAEADE"/>
<path opacity="0.6" d="M48.6041 26.709L51.5788 25.0966L52.6631 27.0971L47.3748 29.9636L38.4642 13.5246L43.7178 10.6769L44.8021 12.6775L41.8622 14.271L44.5684 19.2636L47.2648 17.8021L48.3303 19.7678L45.6339 21.2293L48.6041 26.709Z" fill="#FAEADE"/>
<path opacity="0.6" d="M50.5507 7.65663C51.7165 7.23412 52.7308 7.24535 53.5936 7.69031C54.4688 8.13078 55.1267 8.95871 55.5672 10.1741L59.2686 20.3871C59.7136 21.6149 59.7412 22.6782 59.3514 23.5772C58.9616 24.4761 58.1901 25.1346 57.0367 25.5526C55.8833 25.9706 54.8752 25.9571 54.0124 25.5122C53.1496 25.0672 52.4957 24.2308 52.0507 23.003L48.3493 12.7901C47.9088 11.5747 47.8772 10.5198 48.2546 9.62531C48.632 8.73087 49.3973 8.07464 50.5507 7.65663ZM56.9107 21.6626L52.9395 10.7055C52.7957 10.3086 52.5819 10.0283 52.298 9.86462C52.0142 9.7009 51.7049 9.67972 51.37 9.80108C51.0352 9.92244 50.805 10.1391 50.6796 10.4512C50.5542 10.7632 50.5634 11.1177 50.7072 11.5145L54.6783 22.4716C54.8222 22.8685 55.0444 23.1527 55.3452 23.3244C55.6414 23.4836 55.9507 23.5048 56.2732 23.3879C56.608 23.2666 56.832 23.0521 56.945 22.7445C57.066 22.4201 57.0545 22.0594 56.9107 21.6626Z" fill="#FAEADE"/>
<path opacity="0.6" d="M78.5322 16.3678L77.3465 16.3083L77.0528 22.1579L74.4244 22.0259L75.3621 3.35076L79.1564 3.54126C80.3553 3.60145 81.2745 3.9712 81.914 4.65049C82.5535 5.32979 82.8428 6.27547 82.7819 7.48754L82.52 12.7047C82.4605 13.8904 82.0575 14.8146 81.311 15.4771C80.5651 16.1265 79.6389 16.4234 78.5322 16.3678ZM78.4092 14.0833C78.8439 14.1051 79.1868 13.9836 79.4379 13.7189C79.6896 13.4409 79.8283 13.0451 79.8541 12.5313L80.1101 7.43265C80.1352 6.93201 80.0358 6.54399 79.8119 6.26859C79.5887 5.98001 79.2597 5.82481 78.8249 5.80298L77.8763 5.75536L77.4606 14.0357L78.4092 14.0833Z" fill="#FAEADE"/>
<path opacity="0.6" d="M85.4265 20.7824L88.5992 21.3624L88.19 23.6008L82.4285 22.5475L85.7913 4.15369L88.3801 4.62697L85.4265 20.7824Z" fill="#FAEADE"/>
<path opacity="0.6" d="M93.5689 25.31L94.462 21.148L91.8205 20.2491L90.0683 24.1739L87.5087 23.3432L95.7651 6.36401L99.4916 7.5734L96.1661 26.1529L93.5689 25.31ZM92.7426 18.1769L94.9446 18.8915L96.3143 12.4919L96.9091 9.37725L96.7397 9.32227L95.3921 12.1926L92.7426 18.1769Z" fill="#FAEADE"/>
<path opacity="0.6" d="M103.68 18.5003L105.212 16.4767L108.768 11.6576L111.365 12.9216L102.496 23.5224L100.152 28.2571L97.7938 27.0895L100.164 22.3016L103.208 8.88326L105.842 10.2091L104.183 15.9675L103.503 18.4125L103.68 18.5003Z" fill="#FAEADE"/>
<path opacity="0.6" d="M122.068 20.6676L124.21 22.425L110.453 35.3504L107.41 32.8524L117.406 16.8668L119.547 18.6242L113.454 27.702L111.178 31.2863L111.331 31.4118L114.372 28.4551L122.068 20.6676Z" fill="#FAEADE"/>
<path opacity="0.6" d="M125.834 24.1516L127.668 26.0393L114.255 39.0677L112.421 37.18L125.834 24.1516Z" fill="#FAEADE"/>
<path opacity="0.6" d="M132.736 32.0619C133.412 32.9564 133.673 33.8591 133.518 34.7699C133.363 35.6806 132.786 36.5138 131.786 37.2694L123.088 43.8427C122.088 44.5982 121.129 44.9262 120.21 44.8267C119.292 44.7271 118.495 44.2301 117.818 43.3355L115.444 40.1941L130.362 28.9204L132.736 32.0619ZM121.284 41.8824L130.408 34.987C130.745 34.7325 130.945 34.4495 131.007 34.1379C131.069 33.8264 130.997 33.5338 130.79 33.2602L130.134 32.3919L118.847 40.9217L119.491 41.7742C119.698 42.0478 119.959 42.1972 120.276 42.2224C120.601 42.2582 120.937 42.1448 121.284 41.8824Z" fill="#FAEADE"/>
<path opacity="0.6" d="M123.755 48.2679L125.389 51.2306L123.396 52.3297L120.491 47.0627L136.864 38.031L139.75 43.2633L137.758 44.3624L136.142 41.4344L131.17 44.1774L132.651 46.8628L130.693 47.9428L129.212 45.2574L123.755 48.2679Z" fill="#FAEADE"/>
<path opacity="0.6" d="M142.8 50.0375C143.232 51.2 143.228 52.2144 142.79 53.0805C142.356 53.959 141.533 54.6231 140.321 55.0727L130.136 58.8507C128.911 59.3049 127.848 59.3405 126.946 58.9575C126.045 58.5745 125.38 57.8079 124.954 56.6577C124.527 55.5075 124.533 54.4993 124.971 53.6332C125.41 52.767 126.241 52.1069 127.466 51.6527L137.651 47.8746C138.863 47.425 139.917 47.3855 140.815 47.7562C141.712 48.1268 142.374 48.8873 142.8 50.0375ZM128.843 56.5024L139.77 52.4491C140.165 52.3023 140.444 52.0864 140.606 51.8013C140.767 51.5163 140.786 51.2068 140.662 50.8729C140.538 50.5389 140.32 50.3104 140.007 50.1873C139.694 50.0642 139.34 50.0761 138.944 50.2229L128.017 54.2762C127.621 54.4231 127.339 54.6475 127.169 54.9495C127.012 55.2469 126.993 55.5564 127.113 55.8779C127.236 56.2119 127.453 56.4342 127.761 56.5449C128.086 56.6634 128.447 56.6493 128.843 56.5024Z" fill="#FAEADE"/>
</svg>
