<svg width="102" height="55" viewBox="0 0 102 55" fill="none" xmlns="http://www.w3.org/2000/svg">
<mask id="path-1-outside-1_1_677" maskUnits="userSpaceOnUse" x="0" y="0.0424805" width="102" height="55" fill="black">
<rect fill="white" y="0.0424805" width="102" height="55"/>
<path fill-rule="evenodd" clip-rule="evenodd" d="M31.8647 7.37948C28.3747 7.37948 21.8683 12.2503 21.8663 15.9005C21.8673 17.5174 23.5946 19.121 25.5606 20.9462L25.5606 20.9462C28.1581 23.3578 31.1723 26.1561 31.1723 29.8831C31.1723 38.1488 22.1357 44.5815 14.3431 44.5815C9.9314 44.5815 4 40.3578 4 36.767C4 33.1762 8.465 28.0939 12.7514 28.0939C14.3745 28.0939 15.9631 30.1494 16.0257 31.7349V31.738C16.0257 31.7881 15.9819 31.8289 15.9317 31.8289C9.71207 32.2989 9.4426 36.1341 10.3325 38.3431C12.1028 42.7486 25.8738 34.7491 25.8738 30.4251C25.8738 26.1828 22.8435 23.7565 20.1779 21.6221C18.085 19.9464 16.2169 18.4506 16.2169 16.3972C16.2169 10.0647 23.5207 4.04248 30.6553 4.04248C36.148 4.04248 38.5701 7.61135 38.5701 11.011C38.5701 14.4107 34.456 19.142 31.166 19.142C28.6061 19.142 26.6603 16.2405 26.8608 16.1622C29.8751 15.3569 34.4999 11.9197 34.4999 9.20308C34.4999 7.96855 33.3719 7.37948 31.8647 7.37948ZM80.1311 31.2829C80.2533 30.8787 79.9587 30.6813 79.683 30.8693C78.0819 31.9691 77.5743 32.0161 77.2797 32.0161C76.9695 32.0161 77.8594 28.7136 79.4355 24.5776L79.4417 24.5619C79.5984 24.2154 79.7524 23.8733 79.9024 23.5402C80.8565 21.4214 81.6465 19.667 81.8983 19.464C85.511 16.575 90.4961 7.2659 90.4961 6.39797C90.4961 5.93423 88.6381 4.04483 87.3001 4.04483C85.9622 4.04483 82.3244 9.4561 78.9561 15.4815C75.4624 21.0526 71.8591 28.3689 71.8591 31.9754C71.8591 32.9154 74.4597 36.3683 75.7914 36.3683C76.0139 36.3683 76.3711 36.2022 76.8191 35.9202C77.7497 35.3312 78.5456 34.5604 79.1785 33.6642C79.4637 33.2632 79.6736 32.812 79.8146 32.342L80.1342 31.2829H80.1311ZM87.0401 8.6853C87.1215 8.6853 87.1842 8.7229 87.2187 8.79183C87.2978 8.948 85.9074 11.1494 84.744 12.9912L84.7439 12.9915L84.7432 12.9925L84.7427 12.9934C84.156 13.9223 83.6272 14.7594 83.3741 15.1964C83.2049 15.4878 82.7662 15.2496 82.9197 14.9488C83.6247 13.5639 86.8803 8.6853 87.0401 8.6853ZM93.0442 20.1651C93.8275 18.8836 94.6265 17.7524 95.4067 16.8814C95.413 16.3675 92.6431 14.8416 91.277 14.8416C90.3213 15.8411 88.9771 17.6804 87.5765 19.9082C86.577 19.8706 85.8281 19.8455 85.543 19.8455C84.2332 19.8455 82.2593 23.3705 82.2593 23.64C82.2593 23.7246 82.3721 23.7465 82.4755 23.7465C83.0238 23.7465 84.0891 23.6995 85.402 23.6243C84.7315 24.8588 84.086 26.1341 83.5095 27.3937C82.4974 29.4868 81.5762 32.5574 81.4884 32.8551C81.2252 33.8891 81.0717 34.8416 81.0717 35.6594C81.0717 36.5994 83.6724 40.0524 85.004 40.0524C86.5989 40.0524 91.1109 34.8918 91.9256 33.7105C92.1543 33.3564 92.1637 31.8462 91.8817 31.113C91.8379 30.997 91.7282 31.0848 91.7219 31.0942C90.8822 31.9997 87.1065 35.7002 86.4924 35.7002C86.0161 35.7002 88.3379 29.0042 91.3208 23.2452C94.1565 23.0478 96.6162 22.8566 96.8982 22.819C97.6001 22.725 97.998 20.9077 97.998 20.6163C97.998 20.4816 95.6856 20.3155 93.0411 20.1651H93.0442ZM45.7747 34.6273C48.5101 34.6273 56.1711 22.7489 56.1711 18.9701C56.1711 17.8985 53.442 15.1349 52.1479 15.1349C50.9228 15.1349 48.0213 17.7449 45.7872 20.0636C45.994 19.5591 46.1507 19.0265 46.1507 18.5878C46.1507 16.9491 44.3741 15.2414 42.8388 15.0628C41.5792 17.9329 35.8922 21.6115 32.4925 22.9995C32.6178 23.4382 33.3542 24.8294 34.0153 24.8294C34.924 24.8294 37.4338 23.8706 38.7686 23.2001C36.7883 28.0223 30.625 41.2261 29.6537 42.6894C30.694 43.8832 33.4325 45.4185 34.6451 45.4185C34.9047 45.4274 37.8537 38.3657 40.5358 31.9429L41.0308 30.7577C42.1275 32.8633 43.5939 34.6242 45.7778 34.6242L45.7747 34.6273ZM42.8576 26.3898C44.9099 23.6168 50.1864 18.1773 51.0199 18.1773C51.8816 18.1742 45.9533 29.2819 44.3302 29.2819C43.7004 29.2819 42.6727 28.0035 42.3531 27.5899L42.8576 26.3898ZM65.5564 36.9264C73.1923 37.4654 80.1797 39.0884 81.4549 40.0002H81.4581C82.3072 40.605 82.8931 42.1904 82.8931 42.9706C80.6716 42.5445 72.1301 41.31 63.2409 41.0405C59.9509 46.6053 56.6295 50.9575 54.3265 50.9575C48.2886 50.9575 40.0573 42.557 40.0573 41.2473C40.0573 40.5486 41.3921 37.8696 41.9123 37.763C45.1271 37.1019 52.8288 36.776 59.7065 36.7478C61.0287 34.4041 62.3823 31.8442 63.6639 29.3312C62.1912 30.9386 58.0677 34.8365 56.9335 34.8365C55.7992 34.8365 53.9474 32.2828 53.9474 31.0076C53.9474 29.9585 56.7386 23.9736 58.7265 19.7111C59.648 17.7354 60.3968 16.1297 60.6151 15.5571C61.9844 15.5571 65.0143 16.8418 65.0143 17.5969C65.0143 18.1657 63.3563 21.971 61.9759 25.139C60.9077 27.5905 60.0058 29.6603 60.1671 29.5537C60.368 29.4218 61.3006 28.577 62.3701 27.6082C63.485 26.5983 64.7486 25.4537 65.4875 24.8412C66.5799 22.5954 67.6929 20.4609 68.5655 18.7875C69.3997 17.1875 70.0143 16.0089 70.1812 15.5571C71.5505 15.5571 74.7496 16.8637 74.5804 17.5969C74.3924 18.4304 70.2752 28.1813 65.5564 36.9264ZM45.9417 41.7737C45.9417 42.1622 50.8172 46.1478 52.5343 46.1478C53.5244 46.1478 55.2133 44.0798 57.1622 41.0186C51.4752 41.1345 45.9417 41.5794 45.9417 41.7737Z"/>
</mask>
<path fill-rule="evenodd" clip-rule="evenodd" d="M31.8647 7.37948C28.3747 7.37948 21.8683 12.2503 21.8663 15.9005C21.8673 17.5174 23.5946 19.121 25.5606 20.9462L25.5606 20.9462C28.1581 23.3578 31.1723 26.1561 31.1723 29.8831C31.1723 38.1488 22.1357 44.5815 14.3431 44.5815C9.9314 44.5815 4 40.3578 4 36.767C4 33.1762 8.465 28.0939 12.7514 28.0939C14.3745 28.0939 15.9631 30.1494 16.0257 31.7349V31.738C16.0257 31.7881 15.9819 31.8289 15.9317 31.8289C9.71207 32.2989 9.4426 36.1341 10.3325 38.3431C12.1028 42.7486 25.8738 34.7491 25.8738 30.4251C25.8738 26.1828 22.8435 23.7565 20.1779 21.6221C18.085 19.9464 16.2169 18.4506 16.2169 16.3972C16.2169 10.0647 23.5207 4.04248 30.6553 4.04248C36.148 4.04248 38.5701 7.61135 38.5701 11.011C38.5701 14.4107 34.456 19.142 31.166 19.142C28.6061 19.142 26.6603 16.2405 26.8608 16.1622C29.8751 15.3569 34.4999 11.9197 34.4999 9.20308C34.4999 7.96855 33.3719 7.37948 31.8647 7.37948ZM80.1311 31.2829C80.2533 30.8787 79.9587 30.6813 79.683 30.8693C78.0819 31.9691 77.5743 32.0161 77.2797 32.0161C76.9695 32.0161 77.8594 28.7136 79.4355 24.5776L79.4417 24.5619C79.5984 24.2154 79.7524 23.8733 79.9024 23.5402C80.8565 21.4214 81.6465 19.667 81.8983 19.464C85.511 16.575 90.4961 7.2659 90.4961 6.39797C90.4961 5.93423 88.6381 4.04483 87.3001 4.04483C85.9622 4.04483 82.3244 9.4561 78.9561 15.4815C75.4624 21.0526 71.8591 28.3689 71.8591 31.9754C71.8591 32.9154 74.4597 36.3683 75.7914 36.3683C76.0139 36.3683 76.3711 36.2022 76.8191 35.9202C77.7497 35.3312 78.5456 34.5604 79.1785 33.6642C79.4637 33.2632 79.6736 32.812 79.8146 32.342L80.1342 31.2829H80.1311ZM87.0401 8.6853C87.1215 8.6853 87.1842 8.7229 87.2187 8.79183C87.2978 8.948 85.9074 11.1494 84.744 12.9912L84.7439 12.9915L84.7432 12.9925L84.7427 12.9934C84.156 13.9223 83.6272 14.7594 83.3741 15.1964C83.2049 15.4878 82.7662 15.2496 82.9197 14.9488C83.6247 13.5639 86.8803 8.6853 87.0401 8.6853ZM93.0442 20.1651C93.8275 18.8836 94.6265 17.7524 95.4067 16.8814C95.413 16.3675 92.6431 14.8416 91.277 14.8416C90.3213 15.8411 88.9771 17.6804 87.5765 19.9082C86.577 19.8706 85.8281 19.8455 85.543 19.8455C84.2332 19.8455 82.2593 23.3705 82.2593 23.64C82.2593 23.7246 82.3721 23.7465 82.4755 23.7465C83.0238 23.7465 84.0891 23.6995 85.402 23.6243C84.7315 24.8588 84.086 26.1341 83.5095 27.3937C82.4974 29.4868 81.5762 32.5574 81.4884 32.8551C81.2252 33.8891 81.0717 34.8416 81.0717 35.6594C81.0717 36.5994 83.6724 40.0524 85.004 40.0524C86.5989 40.0524 91.1109 34.8918 91.9256 33.7105C92.1543 33.3564 92.1637 31.8462 91.8817 31.113C91.8379 30.997 91.7282 31.0848 91.7219 31.0942C90.8822 31.9997 87.1065 35.7002 86.4924 35.7002C86.0161 35.7002 88.3379 29.0042 91.3208 23.2452C94.1565 23.0478 96.6162 22.8566 96.8982 22.819C97.6001 22.725 97.998 20.9077 97.998 20.6163C97.998 20.4816 95.6856 20.3155 93.0411 20.1651H93.0442ZM45.7747 34.6273C48.5101 34.6273 56.1711 22.7489 56.1711 18.9701C56.1711 17.8985 53.442 15.1349 52.1479 15.1349C50.9228 15.1349 48.0213 17.7449 45.7872 20.0636C45.994 19.5591 46.1507 19.0265 46.1507 18.5878C46.1507 16.9491 44.3741 15.2414 42.8388 15.0628C41.5792 17.9329 35.8922 21.6115 32.4925 22.9995C32.6178 23.4382 33.3542 24.8294 34.0153 24.8294C34.924 24.8294 37.4338 23.8706 38.7686 23.2001C36.7883 28.0223 30.625 41.2261 29.6537 42.6894C30.694 43.8832 33.4325 45.4185 34.6451 45.4185C34.9047 45.4274 37.8537 38.3657 40.5358 31.9429L41.0308 30.7577C42.1275 32.8633 43.5939 34.6242 45.7778 34.6242L45.7747 34.6273ZM42.8576 26.3898C44.9099 23.6168 50.1864 18.1773 51.0199 18.1773C51.8816 18.1742 45.9533 29.2819 44.3302 29.2819C43.7004 29.2819 42.6727 28.0035 42.3531 27.5899L42.8576 26.3898ZM65.5564 36.9264C73.1923 37.4654 80.1797 39.0884 81.4549 40.0002H81.4581C82.3072 40.605 82.8931 42.1904 82.8931 42.9706C80.6716 42.5445 72.1301 41.31 63.2409 41.0405C59.9509 46.6053 56.6295 50.9575 54.3265 50.9575C48.2886 50.9575 40.0573 42.557 40.0573 41.2473C40.0573 40.5486 41.3921 37.8696 41.9123 37.763C45.1271 37.1019 52.8288 36.776 59.7065 36.7478C61.0287 34.4041 62.3823 31.8442 63.6639 29.3312C62.1912 30.9386 58.0677 34.8365 56.9335 34.8365C55.7992 34.8365 53.9474 32.2828 53.9474 31.0076C53.9474 29.9585 56.7386 23.9736 58.7265 19.7111C59.648 17.7354 60.3968 16.1297 60.6151 15.5571C61.9844 15.5571 65.0143 16.8418 65.0143 17.5969C65.0143 18.1657 63.3563 21.971 61.9759 25.139C60.9077 27.5905 60.0058 29.6603 60.1671 29.5537C60.368 29.4218 61.3006 28.577 62.3701 27.6082C63.485 26.5983 64.7486 25.4537 65.4875 24.8412C66.5799 22.5954 67.6929 20.4609 68.5655 18.7875C69.3997 17.1875 70.0143 16.0089 70.1812 15.5571C71.5505 15.5571 74.7496 16.8637 74.5804 17.5969C74.3924 18.4304 70.2752 28.1813 65.5564 36.9264ZM45.9417 41.7737C45.9417 42.1622 50.8172 46.1478 52.5343 46.1478C53.5244 46.1478 55.2133 44.0798 57.1622 41.0186C51.4752 41.1345 45.9417 41.5794 45.9417 41.7737Z" fill="#523122"/>
<path d="M21.8663 15.9005L17.8663 15.8983L17.8663 15.903L21.8663 15.9005ZM25.5606 20.9462L28.389 18.1178L28.3365 18.0653L28.2821 18.0148L25.5606 20.9462ZM25.5606 20.9462L22.7322 23.7747L22.7847 23.8272L22.8391 23.8777L25.5606 20.9462ZM16.0257 31.7349H20.0257V31.6559L20.0226 31.5769L16.0257 31.7349ZM15.9317 31.8289V27.8289H15.7808L15.6303 27.8403L15.9317 31.8289ZM10.3325 38.3431L14.044 36.8516L14.0427 36.8484L10.3325 38.3431ZM20.1779 21.6221L17.6778 24.7446H17.6778L20.1779 21.6221ZM26.8608 16.1622L25.8284 12.2977L25.613 12.3553L25.4054 12.4364L26.8608 16.1622ZM79.683 30.8693L77.4297 27.5644L77.4183 27.5722L79.683 30.8693ZM80.1311 31.2829L76.3022 30.1253L74.743 35.2829H80.1311V31.2829ZM79.4355 24.5776L75.7213 23.0928L75.7092 23.1229L75.6977 23.1532L79.4355 24.5776ZM79.4417 24.5619L75.7969 22.9141L75.7604 22.9948L75.7275 23.0771L79.4417 24.5619ZM79.9024 23.5402L83.5497 25.1826V25.1825L79.9024 23.5402ZM81.8983 19.464L79.4001 16.34L79.3937 16.3451L79.3872 16.3503L81.8983 19.464ZM78.9561 15.4815L82.3449 17.6066L82.3984 17.5213L82.4476 17.4333L78.9561 15.4815ZM76.8191 35.9202L78.9498 39.3056L78.9585 39.3L76.8191 35.9202ZM79.1785 33.6642L75.9184 31.3465L75.9113 31.3566L79.1785 33.6642ZM79.8146 32.342L75.9852 31.1863L75.9833 31.1926L79.8146 32.342ZM80.1342 31.2829L83.9636 32.4385L85.5195 27.2829H80.1342V31.2829ZM87.2187 8.79183L83.641 10.5808L83.6458 10.5903L83.6505 10.5997L87.2187 8.79183ZM84.744 12.9912L88.0722 15.21L88.0996 15.169L88.1259 15.1273L84.744 12.9912ZM84.7439 12.9915L81.4157 10.7727L81.385 10.8187L81.3556 10.8655L84.7439 12.9915ZM84.7432 12.9925L88.1283 15.1234L88.1315 15.1184L84.7432 12.9925ZM84.7427 12.9934L88.1246 15.1294L88.1278 15.1243L84.7427 12.9934ZM83.3741 15.1964L86.8333 17.2049L86.8352 17.2015L83.3741 15.1964ZM82.9197 14.9488L86.4825 16.7673L86.4845 16.7635L82.9197 14.9488ZM95.4067 16.8814L98.3863 19.5501L99.3881 18.4316L99.4064 16.9301L95.4067 16.8814ZM93.0442 20.1651V24.1651H95.2873L96.4571 22.2512L93.0442 20.1651ZM91.277 14.8416V10.8416H89.5673L88.3858 12.0773L91.277 14.8416ZM87.5765 19.9082L87.4262 23.9053L89.7338 23.9921L90.9629 22.0371L87.5765 19.9082ZM85.402 23.6243L88.917 25.5334L92.3461 19.22L85.1732 19.6308L85.402 23.6243ZM83.5095 27.3937L87.1106 29.135L87.129 29.0969L87.1466 29.0584L83.5095 27.3937ZM81.4884 32.8551L77.6516 31.7243L77.6305 31.7959L77.6121 31.8684L81.4884 32.8551ZM91.9256 33.7105L95.2184 35.9814L95.2527 35.9318L95.2854 35.8811L91.9256 33.7105ZM91.8817 31.113L88.1405 32.5284L88.1444 32.5387L88.1483 32.5489L91.8817 31.113ZM91.7219 31.0942L94.6549 33.814L94.8728 33.579L95.0505 33.3123L91.7219 31.0942ZM91.3208 23.2452L91.0431 19.2548L88.8022 19.4108L87.769 21.4055L91.3208 23.2452ZM96.8982 22.819L97.4269 26.7839L97.4292 26.7836L96.8982 22.819ZM93.0411 20.1651V16.1651L92.8139 24.1586L93.0411 20.1651ZM45.7747 34.6273L42.9471 31.7981L36.1137 38.6273H45.7747V34.6273ZM45.7872 20.0636L42.0861 18.5464L48.6677 22.839L45.7872 20.0636ZM42.8388 15.0628L43.301 11.0896L40.3641 10.748L39.176 13.4553L42.8388 15.0628ZM32.4925 22.9995L30.9805 19.2963L27.6615 20.6514L28.6464 24.0984L32.4925 22.9995ZM38.7686 23.2001L42.4687 24.7196L46.5326 14.8235L36.973 19.6257L38.7686 23.2001ZM29.6537 42.6894L26.3211 40.4772L24.6345 43.018L26.638 45.3173L29.6537 42.6894ZM34.6451 45.4185L34.7814 41.4209L34.7133 41.4185H34.6451V45.4185ZM40.5358 31.9429L36.8448 30.4013L36.8447 30.4015L40.5358 31.9429ZM41.0308 30.7577L44.5785 28.9099L40.6322 21.333L37.3398 29.2161L41.0308 30.7577ZM45.7778 34.6242L48.6054 37.4535L55.4388 30.6242H45.7778V34.6242ZM51.0199 18.1773V22.1773H51.0272L51.0344 22.1773L51.0199 18.1773ZM42.8576 26.3898L39.6424 24.0102L39.3564 24.3966L39.1701 24.8397L42.8576 26.3898ZM42.3531 27.5899L38.6656 26.0398L37.7618 28.19L39.188 30.0357L42.3531 27.5899ZM81.4549 40.0002L79.1285 43.2541L80.1721 44.0002H81.4549V40.0002ZM65.5564 36.9264L62.0362 35.027L59.0936 40.4803L65.2748 40.9165L65.5564 36.9264ZM81.4581 40.0002L83.7785 36.7421L82.7368 36.0002H81.4581V40.0002ZM82.8931 42.9706L82.1396 46.899L86.8931 47.8108V42.9706H82.8931ZM63.2409 41.0405L63.3621 37.0423L61.0002 36.9707L59.7976 39.0048L63.2409 41.0405ZM41.9123 37.763L42.7149 41.6817L42.718 41.681L41.9123 37.763ZM59.7065 36.7478L59.7229 40.7478L62.0479 40.7383L63.1903 38.7133L59.7065 36.7478ZM63.6639 29.3312L67.2273 31.1485L60.7145 26.6291L63.6639 29.3312ZM58.7265 19.7111L62.3517 21.4018V21.4018L58.7265 19.7111ZM60.6151 15.5571V11.5571H57.8594L56.8776 14.132L60.6151 15.5571ZM61.9759 25.139L58.3088 23.5412L61.9759 25.139ZM60.1671 29.5537L57.9719 26.2099L57.9613 26.2168L60.1671 29.5537ZM62.3701 27.6082L59.6847 24.6437L59.6847 24.6437L62.3701 27.6082ZM65.4875 24.8412L68.0403 27.9206L68.7062 27.3686L69.0845 26.5909L65.4875 24.8412ZM68.5655 18.7875L72.1123 20.6368V20.6368L68.5655 18.7875ZM70.1812 15.5571V11.5571H67.3949L66.4291 14.1707L70.1812 15.5571ZM74.5804 17.5969L70.6828 16.6975L70.6806 16.7071L70.6785 16.7167L74.5804 17.5969ZM57.1622 41.0186L60.5364 43.1667L64.547 36.8672L57.0807 37.0194L57.1622 41.0186ZM25.8663 15.9027C25.8661 16.1223 25.8016 15.9273 26.238 15.2906C26.6356 14.7105 27.2686 14.0339 28.0778 13.3773C28.8795 12.7269 29.7444 12.1851 30.5219 11.8224C30.907 11.6426 31.2343 11.5239 31.4906 11.4536C31.7566 11.3807 31.8753 11.3795 31.8647 11.3795V3.37948C30.1688 3.37948 28.4988 3.93827 27.1389 4.57281C25.7148 5.23738 24.2987 6.1415 23.0372 7.16501C21.7833 8.18243 20.5712 9.40794 19.6392 10.7678C18.746 12.0709 17.8674 13.8535 17.8663 15.8983L25.8663 15.9027ZM28.2821 18.0148C27.2377 17.0451 26.5427 16.3891 26.0767 15.8175C25.5695 15.1955 25.8659 15.2975 25.8663 15.8979L17.8663 15.903C17.8677 18.1204 19.0282 19.8326 19.8764 20.8729C20.7658 21.9637 21.9175 23.0221 22.839 23.8776L28.2821 18.0148ZM28.389 18.1178L28.389 18.1178L22.7321 23.7746L22.7322 23.7747L28.389 18.1178ZM35.1723 29.8831C35.1723 26.8764 33.9415 24.4271 32.5635 22.5523C31.2223 20.7277 29.5283 19.1717 28.2821 18.0148L22.8391 23.8777C24.1904 25.1323 25.3022 26.1812 26.1175 27.2904C26.8959 28.3494 27.1723 29.1628 27.1723 29.8831H35.1723ZM14.3431 48.5815C19.2606 48.5815 24.3435 46.5889 28.2106 43.4296C32.0871 40.2627 35.1723 35.5434 35.1723 29.8831H27.1723C27.1723 32.4885 25.7391 35.1184 23.1492 37.2343C20.5499 39.3578 17.2183 40.5815 14.3431 40.5815V48.5815ZM0 36.767C0 38.7501 0.80225 40.4756 1.70913 41.7829C2.63561 43.1184 3.85137 44.2846 5.13842 45.2367C7.62662 47.0772 11.0289 48.5815 14.3431 48.5815V40.5815C13.2456 40.5815 11.4764 39.9741 9.89591 38.805C9.14865 38.2523 8.60582 37.6893 8.2823 37.2229C7.93917 36.7283 8 36.5793 8 36.767H0ZM12.7514 24.0939C9.1095 24.0939 5.94879 26.1635 3.88393 28.3126C1.85054 30.4289 0 33.5397 0 36.767H8C8 36.4035 8.38196 35.1778 9.65267 33.8553C10.8919 32.5655 12.1069 32.0939 12.7514 32.0939V24.0939ZM20.0226 31.5769C19.9471 29.6652 19.0441 27.9271 18.0159 26.7228C17.0235 25.5602 15.2089 24.0939 12.7514 24.0939V32.0939C12.3069 32.0939 12.028 31.9552 11.9448 31.9074C11.8616 31.8595 11.8718 31.847 11.9315 31.917C11.9877 31.9828 12.0326 32.0579 12.0554 32.1097C12.0835 32.1736 12.0372 32.1037 12.0289 31.8929L20.0226 31.5769ZM20.0257 31.738V31.7349H12.0257V31.738H20.0257ZM15.9317 35.8289C18.0136 35.8289 20.0257 34.1706 20.0257 31.738H12.0257C12.0257 29.4057 13.9502 27.8289 15.9317 27.8289V35.8289ZM14.0427 36.8484C13.9875 36.7113 13.9577 36.5582 13.9573 36.4435C13.9569 36.344 13.9769 36.3517 13.9455 36.4069C13.9014 36.4848 13.8966 36.4165 14.1514 36.2841C14.4403 36.1341 15.0661 35.9057 16.2331 35.8175L15.6303 27.8403C11.7521 28.1333 8.61335 29.5919 6.98652 32.4608C5.46113 35.1508 5.88884 38.0172 6.6222 39.8377L14.0427 36.8484ZM21.8738 30.4251C21.8738 29.9473 22.0421 29.8118 21.8623 30.1069C21.7078 30.3607 21.4033 30.752 20.8982 31.2458C19.8896 32.2317 18.4274 33.2904 16.8582 34.1425C15.2447 35.0186 13.8518 35.4954 12.9976 35.6052C12.5665 35.6606 12.5814 35.5811 12.8505 35.6769C13.2633 35.8239 13.7925 36.2256 14.044 36.8516L6.62093 39.8346C7.31506 41.5619 8.6618 42.6773 10.1666 43.2132C11.5276 43.6979 12.9088 43.6824 14.0177 43.5399C16.2434 43.2537 18.6252 42.2864 20.6758 41.1728C22.7706 40.0353 24.8618 38.5587 26.4906 36.9663C27.3043 36.1709 28.0895 35.2623 28.6949 34.2682C29.2752 33.3154 29.8738 31.984 29.8738 30.4251H21.8738ZM17.6778 24.7446C20.5876 27.0744 21.8738 28.3691 21.8738 30.4251H29.8738C29.8738 23.9965 25.0993 20.4385 22.678 18.4997L17.6778 24.7446ZM12.2169 16.3972C12.2169 18.7527 13.3215 20.5393 14.3908 21.7722C15.4054 22.9419 16.711 23.9705 17.6778 24.7446L22.678 18.4997C21.5518 17.598 20.877 17.0408 20.4343 16.5304C20.0463 16.0831 20.2169 16.0951 20.2169 16.3972H12.2169ZM30.6553 0.0424805C26.0126 0.0424805 21.5123 1.97243 18.1785 4.79022C14.8795 7.57863 12.2169 11.6927 12.2169 16.3972H20.2169C20.2169 14.7693 21.2062 12.706 23.3427 10.9001C25.4445 9.12366 28.1634 8.04248 30.6553 8.04248V0.0424805ZM42.5701 11.011C42.5701 8.38388 41.6337 5.59741 39.5279 3.45075C37.376 1.25704 34.3118 0.0424805 30.6553 0.0424805V8.04248C32.4915 8.04248 33.3847 8.61235 33.817 9.053C34.2954 9.54068 34.5701 10.2385 34.5701 11.011H42.5701ZM31.166 23.142C34.5082 23.142 37.3608 20.9414 39.0816 19.0198C40.8526 17.0421 42.5701 14.0937 42.5701 11.011H34.5701C34.5701 11.0946 34.5314 11.4331 34.2617 12.0017C34.0043 12.5444 33.6104 13.1375 33.1219 13.683C32.6305 14.2317 32.1221 14.6447 31.6899 14.8977C31.2317 15.166 31.058 15.142 31.166 15.142V23.142ZM25.4054 12.4364C23.9497 13.005 23.2395 14.2064 22.9889 15.1263C22.7775 15.9023 22.8532 16.5436 22.8929 16.8061C22.9785 17.3727 23.1669 17.8014 23.2346 17.9521C23.4104 18.3434 23.6254 18.6831 23.7907 18.9241C24.1491 19.4463 24.6409 20.0337 25.2373 20.5948C26.3347 21.6272 28.4036 23.142 31.166 23.142V15.142C31.3685 15.142 31.1845 15.2061 30.7192 14.7682C30.5341 14.5941 30.4172 14.4415 30.387 14.3976C30.3582 14.3555 30.4341 14.4558 30.5319 14.6734C30.5605 14.7372 30.7252 15.0955 30.8031 15.611C30.8389 15.848 30.9148 16.4685 30.7076 17.229C30.4612 18.1334 29.7594 19.3243 28.3162 19.888L25.4054 12.4364ZM30.4999 9.20308C30.4999 8.78311 30.655 8.72706 30.4079 9.09558C30.1894 9.42141 29.7975 9.86214 29.2241 10.3482C28.0262 11.3637 26.6326 12.0829 25.8284 12.2977L27.8932 20.0267C30.1033 19.4363 32.5292 18.0342 34.3972 16.4506C35.3568 15.6371 36.3095 14.6588 37.0524 13.551C37.7666 12.4858 38.4999 10.9814 38.4999 9.20308H30.4999ZM31.8647 11.3795C32.185 11.3795 31.9943 11.4558 31.5886 11.1957C31.3521 11.0441 31.051 10.7782 30.8176 10.3651C30.5794 9.94363 30.4999 9.52429 30.4999 9.20308H38.4999C38.4999 7.13916 37.4516 5.45166 35.9064 4.46098C34.5599 3.5977 33.0516 3.37948 31.8647 3.37948V11.3795ZM81.9364 34.1742C81.0092 34.8063 79.1383 35.2787 77.5148 33.9428C75.9307 32.6395 76.0816 30.8551 76.3022 30.1253L83.9599 32.4405C84.3027 31.3065 84.3675 29.2214 82.5978 27.7652C80.7886 26.2766 78.6325 26.7443 77.4297 27.5644L81.9364 34.1742ZM77.2797 36.0161C78.8051 36.0161 80.1436 35.4057 81.9478 34.1664L77.4183 27.5722C77.0853 27.8009 76.8464 27.9492 76.6834 28.0426C76.5188 28.137 76.456 28.1615 76.4736 28.1543C76.4976 28.1444 76.6167 28.098 76.8102 28.0614C76.9068 28.0431 77.0042 28.0306 77.0989 28.0234C77.1914 28.0164 77.2608 28.0161 77.2797 28.0161V36.0161ZM75.6977 23.1532C74.8774 25.3058 74.2211 27.2784 73.802 28.7567C73.5981 29.4756 73.4221 30.1757 73.3221 30.7568C73.2795 31.0041 73.2082 31.46 73.2197 31.9586C73.2242 32.1535 73.2424 32.7696 73.5246 33.4709C73.833 34.2375 74.9294 36.0161 77.2797 36.0161V28.0161C78.2485 28.0161 79.1652 28.3704 79.8719 28.982C80.5013 29.5267 80.8052 30.1339 80.9465 30.4851C81.2083 31.136 81.2154 31.6771 81.2176 31.7736C81.2246 32.0754 81.1842 32.241 81.2061 32.1141C81.2349 31.9468 81.3217 31.5627 81.4986 30.939C81.8408 29.732 82.4175 27.9854 83.1733 26.0019L75.6977 23.1532ZM75.7275 23.0771L75.7213 23.0928L83.1497 26.0624L83.156 26.0467L75.7275 23.0771ZM76.2551 21.8979C76.105 22.2314 75.9521 22.5708 75.7969 22.9141L83.0866 26.2097C83.2446 25.86 83.3999 25.5153 83.5497 25.1826L76.2551 21.8979ZM79.3872 16.3503C78.8382 16.7931 78.5122 17.2998 78.4483 17.396C78.3134 17.5988 78.1977 17.8005 78.1095 17.9609C77.9296 18.2881 77.7386 18.674 77.5545 19.0593C77.1823 19.8383 76.725 20.8544 76.2551 21.8979L83.5497 25.1825C84.0339 24.1073 84.4487 23.1868 84.7729 22.5081C84.937 22.1646 85.0504 21.9414 85.1192 21.8163C85.1553 21.7506 85.1501 21.7653 85.1104 21.825C85.09 21.8557 85.0368 21.9342 84.9538 22.0367C84.8884 22.1176 84.704 22.3399 84.4093 22.5776L79.3872 16.3503ZM86.4961 6.39797C86.4961 6.00743 86.5581 5.72108 86.5761 5.64C86.6015 5.52504 86.6251 5.45069 86.6305 5.43412C86.641 5.40132 86.6324 5.43234 86.5839 5.54846C86.4904 5.77235 86.3269 6.12645 86.0883 6.60002C85.6166 7.53668 84.9326 8.77975 84.1327 10.0974C82.425 12.9105 80.5919 15.387 79.4001 16.34L84.3964 22.588C86.8174 20.652 89.2832 17.0295 90.9713 14.2488C91.8692 12.7695 92.6574 11.342 93.2332 10.1988C93.5184 9.63248 93.7726 9.09435 93.9659 8.63173C94.0607 8.4046 94.1628 8.1438 94.2481 7.87787C94.2888 7.75087 94.4961 7.13644 94.4961 6.39797H86.4961ZM87.3001 8.04483C87.0047 8.04483 86.7944 7.99422 86.6936 7.96459C86.5897 7.93404 86.541 7.90777 86.5499 7.9123C86.5776 7.92638 86.6827 7.98915 86.8281 8.11118C86.8936 8.16617 86.952 8.22047 86.999 8.26781C87.0478 8.31693 87.0702 8.34436 87.0691 8.34301C87.0679 8.34144 87.0542 8.32452 87.0318 8.29219C87.0107 8.26195 86.969 8.19969 86.918 8.108C86.8712 8.02378 86.7858 7.86013 86.7048 7.63157C86.6338 7.43136 86.4961 6.98944 86.4961 6.39797H94.4961C94.4961 5.26162 94.0222 4.42236 93.9094 4.21942C93.7102 3.86132 93.4863 3.55684 93.3007 3.32629C92.9212 2.85484 92.4583 2.39232 91.9716 1.98382C91.4852 1.57553 90.875 1.13697 90.178 0.782298C89.5266 0.450825 88.5129 0.0448341 87.3001 0.0448341V8.04483ZM82.4476 17.4333C84.0935 14.489 85.7665 11.7662 87.1492 9.82188C87.8509 8.83522 88.4023 8.15664 88.7806 7.76561C88.975 7.56463 89.0279 7.54017 88.9502 7.59322C88.9061 7.62327 88.7632 7.71739 88.5313 7.8118C88.3069 7.90317 87.877 8.04483 87.3001 8.04483V0.0448341C85.9109 0.0448341 84.8811 0.684812 84.4411 0.985018C83.8952 1.35753 83.4181 1.8029 83.0307 2.20338C82.2453 3.01525 81.4258 4.06607 80.6298 5.1854C79.0171 7.45311 77.187 10.4486 75.4646 13.5297L82.4476 17.4333ZM75.8591 31.9754C75.8591 31.1127 76.4087 29.0805 77.746 26.1048C78.9945 23.3266 80.6762 20.2676 82.3449 17.6066L75.5673 13.3564C73.7423 16.2665 71.8755 19.6512 70.449 22.8255C69.1111 25.8024 67.8591 29.2316 67.8591 31.9754H75.8591ZM75.7914 32.3683C76.1359 32.3683 76.4108 32.4233 76.5948 32.4742C76.7798 32.5254 76.9117 32.5832 76.9849 32.6187C77.0601 32.6552 77.1029 32.6825 77.112 32.6884C77.1224 32.6951 77.1133 32.6899 77.0851 32.6677C77.0255 32.621 76.9281 32.5364 76.7997 32.4071C76.674 32.2805 76.5378 32.1306 76.3998 31.9648C76.2621 31.7995 76.1319 31.6296 76.0165 31.4666C75.8999 31.302 75.8092 31.1597 75.7457 31.0503C75.7145 30.9966 75.6943 30.9584 75.6831 30.936C75.6711 30.9121 75.6749 30.9173 75.6876 30.9491C75.6985 30.9764 75.7327 31.0647 75.7675 31.2028C75.7855 31.2743 75.8072 31.373 75.8249 31.4948C75.8424 31.615 75.8591 31.7785 75.8591 31.9754H67.8591C67.8591 32.8634 68.1274 33.5891 68.2593 33.9189C68.4268 34.3379 68.6316 34.73 68.8268 35.0663C69.22 35.7437 69.7215 36.4468 70.252 37.0839C70.7746 37.7115 71.4243 38.3945 72.1453 38.9604C72.6654 39.3687 74.0098 40.3683 75.7914 40.3683V32.3683ZM74.6885 32.5349C74.5518 32.6209 74.5301 32.6241 74.5992 32.5934C74.6373 32.5765 74.7457 32.5302 74.9103 32.4844C75.0621 32.4422 75.3739 32.3683 75.7914 32.3683V40.3683C76.7524 40.3683 77.5173 40.0507 77.8422 39.9066C78.2575 39.7225 78.6384 39.5015 78.9498 39.3056L74.6885 32.5349ZM75.9113 31.3566C75.5661 31.8453 75.1473 32.2445 74.6797 32.5404L78.9585 39.3C80.3522 38.4178 81.5251 37.2754 82.4458 35.9719L75.9113 31.3566ZM75.9833 31.1926C75.9523 31.296 75.9214 31.3424 75.9184 31.3465L82.4386 35.9819C83.0059 35.184 83.3949 34.328 83.6459 33.4914L75.9833 31.1926ZM76.3048 30.1273L75.9852 31.1863L83.644 33.4976L83.9636 32.4385L76.3048 30.1273ZM80.1311 35.2829H80.1342V27.2829H80.1311V35.2829ZM90.7963 7.00286C90.0425 5.49539 88.541 4.6853 87.0401 4.6853V12.6853C86.4566 12.6853 85.7647 12.5464 85.0956 12.1467C84.4187 11.7422 83.9371 11.173 83.641 10.5808L90.7963 7.00286ZM88.1259 15.1273C88.7006 14.2174 89.3631 13.1689 89.8714 12.3271C90.1209 11.9138 90.3681 11.4933 90.5568 11.1401C90.644 10.977 90.7687 10.736 90.8765 10.4765C90.9249 10.3603 91.0258 10.1088 91.1032 9.7904C91.1415 9.63333 91.2042 9.34031 91.2188 8.96942C91.2306 8.66771 91.2348 7.86809 90.7868 6.98399L83.6505 10.5997C83.4154 10.1355 83.314 9.7102 83.2674 9.40618C83.2203 9.09863 83.2177 8.83875 83.2249 8.65536C83.2388 8.30207 83.298 8.03051 83.3302 7.89859C83.3954 7.63047 83.4734 7.44413 83.489 7.40662C83.5314 7.30462 83.5514 7.27561 83.5011 7.36959C83.4151 7.53067 83.2567 7.80487 83.0231 8.19173C82.5652 8.95004 81.9508 9.92321 81.3621 10.8552L88.1259 15.1273ZM88.0721 15.2103L88.0722 15.21L81.4158 10.7724L81.4157 10.7727L88.0721 15.2103ZM88.1315 15.1184L88.1321 15.1174L81.3556 10.8655L81.355 10.8665L88.1315 15.1184ZM88.1278 15.1243L88.1283 15.1234L81.3581 10.8615L81.3576 10.8624L88.1278 15.1243ZM86.8352 17.2015C87.0392 16.8494 87.512 16.0993 88.1246 15.1294L81.3608 10.8573C80.8 11.7452 80.2152 12.6695 79.9129 13.1912L86.8352 17.2015ZM79.357 13.1303C78.8349 14.1533 78.7229 15.3847 79.1497 16.5408C79.546 17.6139 80.3103 18.3711 81.1148 18.8086C81.9193 19.2462 82.9682 19.4753 84.0814 19.2269C85.2806 18.9592 86.2554 18.2001 86.8332 17.2049L79.9149 13.1878C80.4082 12.3383 81.2647 11.6587 82.3388 11.419C83.327 11.1984 84.2441 11.4039 84.9369 11.7807C85.6299 12.1576 86.3027 12.817 86.6546 13.77C87.0371 14.8059 86.9279 15.8947 86.4825 16.7673L79.357 13.1303ZM87.0401 4.6853C85.9344 4.6853 85.1632 5.14623 84.9991 5.24298C84.7168 5.40938 84.515 5.57525 84.4198 5.65648C84.2199 5.8271 84.0749 5.98435 84.0156 6.04959C83.8777 6.20126 83.7593 6.35088 83.6867 6.44433C83.5259 6.65142 83.3424 6.90474 83.162 7.1599C82.7915 7.68377 82.3232 8.37334 81.849 9.08975C80.9548 10.4405 79.83 12.2012 79.355 13.1342L86.4845 16.7635C86.573 16.5896 86.8237 16.158 87.2322 15.5031C87.6159 14.8882 88.0737 14.1795 88.5198 13.5057C88.9675 12.8293 89.3871 12.2127 89.694 11.7785C89.8523 11.5547 89.9548 11.4161 90.0054 11.3509C90.0385 11.3083 90.0071 11.3517 89.9348 11.4313C89.9083 11.4604 89.7908 11.5901 89.6125 11.7422C89.5282 11.8141 89.3359 11.973 89.0616 12.1347C88.9204 12.2179 88.6966 12.3383 88.405 12.4445C88.1275 12.5456 87.65 12.6853 87.0401 12.6853V4.6853ZM92.4271 14.2126C91.4269 15.3293 90.4856 16.6813 89.6313 18.079L96.4571 22.2512C97.1694 21.0858 97.8261 20.1755 98.3863 19.5501L92.4271 14.2126ZM91.277 18.8416C91.0965 18.8416 91.0061 18.8189 91.0363 18.8251C91.0555 18.8291 91.1201 18.8445 91.2306 18.8814C91.4567 18.957 91.7405 19.0778 92.02 19.2223C92.1549 19.292 92.2723 19.3587 92.3661 19.4165C92.4124 19.445 92.4492 19.469 92.4767 19.4876C92.4902 19.4969 92.5006 19.5041 92.5079 19.5094C92.5153 19.5147 92.5187 19.5174 92.5186 19.5173C92.5185 19.5173 92.5136 19.5135 92.5044 19.5058C92.4953 19.4983 92.48 19.4854 92.4597 19.467C92.4242 19.4348 92.346 19.3614 92.2483 19.2472C92.1599 19.144 91.9859 18.927 91.8197 18.604C91.6648 18.3031 91.3967 17.679 91.407 16.8326L99.4064 16.9301C99.4264 15.294 98.4845 14.2303 98.3259 14.0451C97.9964 13.6601 97.6444 13.367 97.3938 13.1744C96.869 12.771 96.2618 12.4092 95.693 12.1153C95.11 11.814 94.4456 11.5212 93.7683 11.2946C93.1548 11.0894 92.2501 10.8416 91.277 10.8416V18.8416ZM90.9629 22.0371C92.323 19.8738 93.4963 18.3085 94.1681 17.6058L88.3858 12.0773C87.1464 13.3736 85.6313 15.4869 84.1902 17.7792L90.9629 22.0371ZM85.543 23.8455C85.7331 23.8455 86.386 23.8662 87.4262 23.9053L87.7269 15.911C86.768 15.8749 85.9231 15.8455 85.543 15.8455V23.8455ZM86.2593 23.64C86.2593 23.9216 86.2288 24.1459 86.2072 24.2769C86.1839 24.4177 86.157 24.5317 86.1371 24.6084C86.0984 24.7581 86.0595 24.869 86.0407 24.9205C86.0193 24.9794 86.0018 25.0216 85.9932 25.0421C85.9838 25.0643 85.9778 25.0772 85.9768 25.0793C85.9753 25.0826 85.9831 25.0657 86.003 25.0273C86.022 24.9904 86.0481 24.9417 86.0812 24.8823C86.2203 24.6332 86.4274 24.2973 86.6587 23.9753C86.7723 23.8171 86.8799 23.6789 86.976 23.5659C87.0752 23.4492 87.1393 23.3863 87.1637 23.3642C87.1988 23.3324 87.12 23.4125 86.9276 23.5165C86.8246 23.5721 86.66 23.6505 86.4381 23.7169C86.2144 23.7839 85.91 23.8455 85.543 23.8455V15.8455C83.6167 15.8455 82.2694 17.0031 81.791 17.4367C81.1277 18.038 80.5705 18.7383 80.1612 19.3081C79.7353 19.901 79.3671 20.4969 79.0951 20.9844C78.9606 21.2255 78.828 21.4788 78.7164 21.7197C78.6631 21.835 78.5907 21.9987 78.5228 22.1854C78.4893 22.2775 78.4391 22.4235 78.3928 22.6023C78.3612 22.7242 78.2593 23.1232 78.2593 23.64H86.2593ZM82.4755 19.7465C82.5975 19.7465 83.1329 19.7449 83.7836 19.999C84.1338 20.1357 84.743 20.4336 85.2908 21.0606C85.9068 21.7657 86.2593 22.6803 86.2593 23.64H78.2593C78.2593 26.0288 80.073 27.1383 80.8736 27.4509C81.6065 27.7371 82.25 27.7465 82.4755 27.7465V19.7465ZM85.1732 19.6308C83.8457 19.7069 82.8918 19.7465 82.4755 19.7465V27.7465C83.1558 27.7465 84.3325 27.6921 85.6307 27.6177L85.1732 19.6308ZM87.1466 29.0584C87.6794 27.8944 88.2827 26.7012 88.917 25.5334L81.887 21.7151C81.1802 23.0165 80.4926 24.3738 79.8723 25.729L87.1466 29.0584ZM85.3253 33.9859C85.4186 33.6694 86.2596 30.8948 87.1106 29.135L79.9083 25.6524C78.7351 28.0787 77.7338 31.4455 77.6516 31.7243L85.3253 33.9859ZM85.0717 35.6594C85.0717 35.2997 85.1456 34.7029 85.3648 33.8418L77.6121 31.8684C77.3048 33.0753 77.0717 34.3836 77.0717 35.6594H85.0717ZM85.004 36.0524C85.3486 36.0524 85.6234 36.1074 85.8075 36.1583C85.9924 36.2095 86.1244 36.2673 86.1976 36.3028C86.2728 36.3392 86.3156 36.3666 86.3247 36.3725C86.335 36.3792 86.326 36.374 86.2977 36.3518C86.2382 36.305 86.1408 36.2204 86.0124 36.0912C85.8866 35.9646 85.7505 35.8147 85.6124 35.6489C85.4748 35.4836 85.3445 35.3137 85.2291 35.1507C85.1125 34.9861 85.0218 34.8437 84.9584 34.7344C84.9272 34.6807 84.907 34.6425 84.8957 34.6201C84.8838 34.5962 84.8875 34.6013 84.9002 34.6332C84.9112 34.6605 84.9454 34.7488 84.9801 34.8868C84.9981 34.9583 85.0198 35.0571 85.0375 35.1788C85.055 35.2991 85.0717 35.4625 85.0717 35.6594H77.0717C77.0717 36.5474 77.34 37.2732 77.4719 37.603C77.6394 38.022 77.8442 38.4141 78.0394 38.7504C78.4326 39.4278 78.9341 40.1308 79.4646 40.7679C79.9872 41.3955 80.637 42.0786 81.3579 42.6445C81.878 43.0528 83.2224 44.0524 85.004 44.0524V36.0524ZM88.6327 31.4396C88.6328 31.4394 88.631 31.4421 88.6269 31.4478C88.6229 31.4534 88.6173 31.4612 88.6099 31.4713C88.5949 31.4919 88.5746 31.519 88.5486 31.5532C88.4962 31.6221 88.4277 31.7096 88.343 31.815C88.1732 32.026 87.9552 32.2874 87.7001 32.5821C87.1879 33.174 86.5603 33.8608 85.9205 34.5045C85.2645 35.1644 84.6723 35.7014 84.2215 36.0444C83.9931 36.2183 83.8864 36.2764 83.89 36.2746C83.8962 36.2713 83.9812 36.227 84.1334 36.1791C84.2764 36.134 84.5827 36.0524 85.004 36.0524V44.0524C86.1585 44.0524 87.0873 43.6273 87.5619 43.3821C88.1207 43.0934 88.6345 42.7391 89.0661 42.4107C89.9353 41.7492 90.8211 40.9222 91.5943 40.1443C93.1061 38.6234 94.621 36.8477 95.2184 35.9814L88.6327 31.4396ZM88.1483 32.5489C88.103 32.431 88.0841 32.3531 88.0795 32.3333C88.0738 32.3091 88.075 32.309 88.0787 32.3356C88.0868 32.3932 88.0945 32.4855 88.0953 32.5875C88.0962 32.697 88.0887 32.7375 88.0942 32.6991C88.0968 32.6804 88.1104 32.5861 88.151 32.442C88.172 32.3673 88.2075 32.2538 88.2641 32.1155C88.3185 31.9827 88.4127 31.7768 88.5657 31.5399L95.2854 35.8811C95.8551 34.9992 95.9802 34.0681 96.0156 33.8176C96.0783 33.3736 96.0984 32.9243 96.095 32.5204C96.0892 31.8219 96.0093 30.702 95.6151 29.677L88.1483 32.5489ZM95.0505 33.3123C94.8033 33.6834 94.5455 33.9274 94.5186 33.9537C94.4283 34.0418 94.3488 34.111 94.2906 34.1595C94.1715 34.2588 94.0509 34.3473 93.9301 34.4262C93.7166 34.5656 93.3244 34.7923 92.7791 34.9318C92.226 35.0733 91.2112 35.1945 90.1103 34.6669C88.9583 34.1148 88.3866 33.1787 88.1405 32.5284L95.6229 29.6975C95.3549 28.9892 94.7531 28.0207 93.5679 27.4527C92.434 26.9092 91.3831 27.0312 90.7964 27.1814C90.2173 27.3295 89.7938 27.5726 89.5566 27.7275C89.424 27.8141 89.2934 27.9101 89.167 28.0155C89.1051 28.0671 89.0225 28.139 88.93 28.2294C88.9007 28.258 88.6413 28.5038 88.3933 28.876L95.0505 33.3123ZM86.4924 39.7002C87.3834 39.7002 88.0561 39.4075 88.2651 39.3148C88.5677 39.1805 88.819 39.032 88.9889 38.9252C89.3345 38.7078 89.6677 38.4555 89.9421 38.237C90.5076 37.7867 91.1457 37.2201 91.7346 36.6769C92.9095 35.5932 94.1429 34.3661 94.6549 33.814L88.7889 28.3743C88.4612 28.7278 87.3869 29.8037 86.3105 30.7965C85.7737 31.2917 85.3003 31.7068 84.9588 31.9786C84.7798 32.1212 84.7108 32.1651 84.729 32.1536C84.7353 32.1497 84.8417 32.0816 85.0211 32.002C85.1068 31.964 85.6781 31.7002 86.4924 31.7002V39.7002ZM87.769 21.4055C86.1923 24.4496 84.8028 27.7135 83.8621 30.2332C83.3949 31.4844 83.0111 32.6249 82.7695 33.5037C82.6577 33.9103 82.5306 34.4226 82.4703 34.9163C82.4475 35.1026 82.3835 35.6453 82.49 36.2827C82.5404 36.584 82.6904 37.315 83.2379 38.0566C83.9217 38.9828 85.0792 39.7002 86.4924 39.7002V31.7002C87.8757 31.7002 89.009 32.4045 89.6738 33.3049C90.2024 34.0208 90.3388 34.7136 90.3807 34.9644C90.4329 35.277 90.4319 35.5196 90.4292 35.6295C90.4261 35.7553 90.4162 35.8459 90.4113 35.8861C90.3984 35.9911 90.3978 35.9353 90.4834 35.6242C90.6364 35.0676 90.9301 34.1741 91.3567 33.0314C92.2036 30.7634 93.4664 27.7998 94.8727 25.0848L87.769 21.4055ZM96.3695 18.8541C96.372 18.8538 95.8468 18.9005 94.7608 18.9839C93.7668 19.0603 92.4525 19.1567 91.0431 19.2548L91.5986 27.2355C94.3383 27.0448 96.9824 26.8432 97.4269 26.7839L96.3695 18.8541ZM93.998 20.6163C93.998 20.4375 94.0113 20.3075 94.0153 20.2696C94.021 20.2153 94.0264 20.1799 94.0282 20.1682C94.032 20.1446 94.0316 20.1515 94.0239 20.1854C94.0072 20.2589 93.9831 20.3411 93.963 20.3952C93.9296 20.4846 93.9628 20.3563 94.1244 20.1328C94.2113 20.0126 94.4026 19.7707 94.7282 19.5235C95.0657 19.2672 95.6178 18.9548 96.3672 18.8544L97.4292 26.7836C99.2446 26.5405 100.252 25.3123 100.608 24.8195C101.041 24.2197 101.306 23.6012 101.46 23.1882C101.627 22.7398 101.746 22.3071 101.826 21.955C101.876 21.7327 101.998 21.1789 101.998 20.6163H93.998ZM92.8139 24.1586C94.1298 24.2335 95.3227 24.31 96.1728 24.3822C96.6102 24.4194 96.889 24.4498 97.0298 24.4699C97.1225 24.4832 97.0441 24.4764 96.8897 24.4364C96.8432 24.4243 96.5564 24.3525 96.2049 24.1795C96.0411 24.0989 95.6392 23.8898 95.2237 23.4915C94.8227 23.1073 93.998 22.1373 93.998 20.6163H101.998C101.998 19.0868 101.169 18.1084 100.759 17.7156C100.334 17.3088 99.9192 17.0911 99.7378 17.0019C99.3512 16.8116 99.0121 16.7222 98.8972 16.6924C98.606 16.6169 98.3263 16.5739 98.1609 16.5503C97.7855 16.4967 97.3209 16.4509 96.8497 16.4109C95.8824 16.3288 94.5969 16.2471 93.2682 16.1715L92.8139 24.1586ZM93.0442 16.1651H93.0411V24.1651H93.0442V16.1651ZM52.1711 18.9701C52.1711 18.9553 52.0559 19.6992 51.3009 21.3313C50.6373 22.7659 49.6962 24.4327 48.6538 26.0222C47.6041 27.6228 46.5319 29.0228 45.6394 29.9719C45.1864 30.4535 44.8697 30.7221 44.7023 30.8401C44.4021 31.0517 44.8374 30.6273 45.7747 30.6273V38.6273C47.3959 38.6273 48.6689 37.8318 49.3113 37.379C50.0864 36.8327 50.817 36.1437 51.4669 35.4527C52.7801 34.0565 54.136 32.2507 55.3436 30.4093C56.5584 28.5569 57.7034 26.5455 58.5617 24.6901C59.3286 23.0322 60.1711 20.8743 60.1711 18.9701H52.1711ZM52.1479 19.1349C51.8785 19.1349 51.6663 19.0997 51.5278 19.0685C51.3875 19.0369 51.2881 19.0016 51.2347 18.9807C51.1798 18.9592 51.1509 18.9441 51.1492 18.9432C51.1467 18.9419 51.1604 18.949 51.1903 18.9678C51.2528 19.0072 51.3489 19.0744 51.4714 19.1737C51.5918 19.2713 51.7206 19.3859 51.8491 19.5114C51.9774 19.6368 52.095 19.763 52.1954 19.8807C52.2975 20.0005 52.367 20.0942 52.4071 20.1537C52.4263 20.1822 52.4327 20.1939 52.4297 20.1886C52.4274 20.1845 52.408 20.1502 52.3808 20.0875C52.3668 20.0551 52.3489 20.011 52.3295 19.9559C52.3102 19.9011 52.2877 19.8303 52.2657 19.7449C52.2439 19.6598 52.2208 19.5529 52.2029 19.427C52.1851 19.3012 52.1711 19.1473 52.1711 18.9701H60.1711C60.1711 18.0629 59.9034 17.327 59.7218 16.9078C59.519 16.4396 59.2712 16.0242 59.0418 15.6838C58.5822 15.0016 58.0125 14.3488 57.4405 13.7899C56.869 13.2314 56.1866 12.6602 55.4546 12.1991C54.8779 11.8358 53.6542 11.1349 52.1479 11.1349V19.1349ZM48.6677 22.839C49.7238 21.7429 50.8844 20.635 51.871 19.832C52.3708 19.4252 52.7415 19.1662 52.9743 19.0297C53.0889 18.9625 53.1019 18.9655 53.0278 18.9935C52.9829 19.0105 52.6572 19.1349 52.1479 19.1349V11.1349C50.6944 11.1349 49.4832 11.803 48.9284 12.1282C48.2029 12.5535 47.4788 13.092 46.8209 13.6275C45.4919 14.7092 44.0847 16.0656 42.9067 17.2882L48.6677 22.839ZM42.1507 18.5878C42.1507 18.5242 42.1535 18.4717 42.1568 18.4316C42.16 18.3915 42.1641 18.3604 42.1672 18.3394C42.1733 18.2991 42.1778 18.2844 42.1743 18.2982C42.1709 18.3111 42.1628 18.34 42.1473 18.3853C42.1319 18.43 42.1117 18.484 42.0861 18.5464L49.4883 21.5808C49.753 20.9351 50.1507 19.8189 50.1507 18.5878H42.1507ZM42.3766 19.036C42.2518 19.0215 42.1674 18.9968 42.1254 18.9824C42.0826 18.9677 42.0663 18.9578 42.0731 18.9616C42.093 18.9726 42.1465 19.0084 42.2028 19.0664C42.2604 19.1256 42.2676 19.1526 42.2493 19.1147C42.2321 19.0792 42.1507 18.8979 42.1507 18.5878H50.1507C50.1507 16.381 49.0169 14.5984 47.9381 13.4891C46.8544 12.3747 45.2256 11.3135 43.301 11.0896L42.3766 19.036ZM34.0045 26.7028C36.0422 25.8708 38.5916 24.4369 40.8149 22.8262C41.9376 22.0129 43.0518 21.1009 44.0097 20.1345C44.9269 19.2092 45.9032 18.0337 46.5016 16.6703L39.176 13.4553C39.1761 13.455 39.1634 13.4838 39.1282 13.542C39.0933 13.5998 39.0417 13.6777 38.9688 13.7752C38.8203 13.9737 38.61 14.2181 38.328 14.5026C37.7591 15.0766 37.0029 15.7091 36.1215 16.3477C34.3364 17.6409 32.3425 18.7402 30.9805 19.2963L34.0045 26.7028ZM34.0153 20.8294C34.6403 20.8294 35.1336 20.9938 35.4517 21.1417C35.7647 21.2873 35.9748 21.4469 36.0839 21.5382C36.2872 21.7084 36.3588 21.8263 36.3278 21.7821C36.313 21.7611 36.285 21.7152 36.2611 21.6679C36.2165 21.5795 36.2711 21.6646 36.3386 21.9007L28.6464 24.0984C28.8627 24.8555 29.3146 25.715 29.7781 26.3758C30.0295 26.7343 30.417 27.2274 30.9482 27.6721C31.4102 28.059 32.4783 28.8294 34.0153 28.8294V20.8294ZM36.973 19.6257C36.4763 19.8753 35.6699 20.2202 34.8895 20.4983C34.5044 20.6355 34.1795 20.7371 33.942 20.7992C33.824 20.83 33.759 20.8428 33.74 20.8461C33.7021 20.8527 33.8119 20.8294 34.0153 20.8294V28.8294C34.7814 28.8294 35.5221 28.6549 35.9653 28.5391C36.4956 28.4004 37.052 28.2204 37.5748 28.0341C38.6102 27.6652 39.7261 27.1954 40.5641 26.7744L36.973 19.6257ZM32.9863 44.9016C33.4086 44.2653 34.1083 42.877 34.8002 41.4671C35.5604 39.9177 36.4953 37.9549 37.4566 35.8978C39.369 31.8056 41.4397 27.2253 42.4687 24.7196L35.0684 21.6806C34.1171 23.9971 32.1161 28.4298 30.209 32.5109C29.2605 34.5405 28.3487 36.4543 27.6182 37.943C27.2522 38.6889 26.9392 39.3129 26.6938 39.7848C26.4151 40.3211 26.306 40.4999 26.3211 40.4772L32.9863 44.9016ZM34.6451 41.4185C34.7761 41.4185 34.8728 41.4286 34.9269 41.4358C34.9826 41.4432 35.0149 41.4504 35.0204 41.4517C35.0274 41.4533 34.9808 41.4426 34.8767 41.4044C34.6649 41.3268 34.3638 41.1906 34.017 40.9993C33.6751 40.8107 33.3476 40.6009 33.0791 40.4025C32.9466 40.3046 32.8422 40.2196 32.7657 40.152C32.6859 40.0815 32.6594 40.0501 32.6694 40.0616L26.638 45.3173C27.5989 46.42 29.0036 47.3702 30.1526 48.004C30.772 48.3457 31.4479 48.668 32.1231 48.9156C32.7174 49.1334 33.6395 49.4185 34.6451 49.4185V41.4185ZM36.8447 30.4015C35.5008 33.6199 34.1024 36.9684 33.0079 39.5112C32.4584 40.7879 32.001 41.8252 31.6726 42.5296C31.5034 42.8925 31.3967 43.1058 31.3441 43.2031C31.309 43.2679 31.3451 43.1936 31.4346 43.0641C31.4687 43.0148 31.611 42.8086 31.8465 42.5728C31.9623 42.4568 32.2063 42.2257 32.5688 42.0035C32.8856 41.8093 33.6757 41.3832 34.7814 41.4209L34.5088 49.4162C35.6226 49.4542 36.4221 49.0249 36.7496 48.8241C37.1228 48.5954 37.3789 48.3543 37.508 48.225C37.77 47.9626 37.9439 47.7165 38.0145 47.6144C38.1771 47.3792 38.3057 47.1478 38.3814 47.0079C38.5502 46.6956 38.7375 46.3084 38.9232 45.9102C39.3045 45.0924 39.8007 43.9645 40.3561 42.674C41.4716 40.0825 42.8888 36.6887 44.2269 33.4843L36.8447 30.4015ZM37.3398 29.2161L36.8448 30.4013L44.2268 33.4844L44.7218 32.2992L37.3398 29.2161ZM45.7778 30.6242C45.7758 30.6242 45.7871 30.6242 45.8064 30.6283C45.8255 30.6322 45.8396 30.6374 45.8454 30.6399C45.8572 30.6449 45.8013 30.624 45.6818 30.5158C45.4068 30.2667 45.0266 29.7703 44.5785 28.9099L37.4832 32.6054C38.6366 34.8201 41.1068 38.6242 45.7778 38.6242V30.6242ZM48.6023 37.4566L48.6054 37.4535L42.9503 31.7949L42.9471 31.7981L48.6023 37.4566ZM51.0199 14.1773C50.0497 14.1773 49.3174 14.5209 49.0911 14.6289C48.7588 14.7874 48.4764 14.9658 48.274 15.1025C47.862 15.381 47.4469 15.7169 47.0748 16.0366C46.3128 16.6913 45.4244 17.5445 44.5452 18.4376C42.8057 20.2047 40.8276 22.4088 39.6424 24.0102L46.0728 28.7694C46.9398 27.5979 48.6262 25.6957 50.2464 24.0498C51.0471 23.2364 51.7623 22.5564 52.2883 22.1045C52.5601 21.871 52.71 21.7602 52.7541 21.7304C52.7798 21.7131 52.6982 21.7718 52.5357 21.8493C52.4793 21.8762 51.8859 22.1773 51.0199 22.1773V14.1773ZM44.3302 33.2819C45.5015 33.2819 46.3725 32.8134 46.7768 32.565C47.2427 32.2786 47.6198 31.9492 47.892 31.6874C48.4413 31.1591 48.9555 30.5221 49.3968 29.9257C50.2998 28.7053 51.255 27.165 52.0848 25.7042C52.9179 24.2376 53.6957 22.7259 54.2251 21.5278C54.4748 20.9627 54.7413 20.3077 54.9053 19.7067C54.9667 19.4818 55.1326 18.8619 55.1009 18.1284C55.0861 17.7879 55.0148 16.8948 54.4053 15.9842C53.6135 14.801 52.3128 14.1726 51.0053 14.1774L51.0344 22.1773C49.7809 22.1819 48.5207 21.575 47.7569 20.4337C47.1755 19.5649 47.1196 18.734 47.1083 18.4746C47.0936 18.135 47.1315 17.8852 47.1467 17.794C47.1653 17.6825 47.1841 17.613 47.1875 17.6005C47.1936 17.5783 47.1806 17.6283 47.1259 17.7712C47.0749 17.9043 47.003 18.0787 46.9077 18.2944C46.5172 19.1781 45.873 20.4427 45.1288 21.7527C44.3815 23.0684 43.6041 24.3048 42.966 25.167C42.6368 25.6119 42.4283 25.8427 42.3461 25.9218C42.3025 25.9637 42.3866 25.873 42.5878 25.7493C42.7273 25.6636 43.3618 25.2819 44.3302 25.2819V33.2819ZM39.188 30.0357C39.3787 30.2825 39.845 30.8739 40.4133 31.4357C40.6921 31.7113 41.0955 32.0804 41.5853 32.4062C41.9607 32.6559 42.9638 33.2819 44.3302 33.2819V25.2819C44.9108 25.2819 45.3443 25.4243 45.569 25.5146C45.8036 25.6089 45.9559 25.7053 46.0158 25.7451C46.1258 25.8183 46.1342 25.8419 46.0374 25.7463C45.8545 25.5654 45.6471 25.3108 45.5182 25.1441L39.188 30.0357ZM39.1701 24.8397L38.6656 26.0398L46.0405 29.14L46.545 27.9399L39.1701 24.8397ZM83.7814 36.7464C82.8579 36.0861 81.5767 35.6586 80.6659 35.3828C79.5624 35.0486 78.206 34.7153 76.6951 34.4052C73.6682 33.784 69.8378 33.2187 65.838 32.9364L65.2748 40.9165C68.911 41.1731 72.3922 41.6888 75.0868 42.2418C76.4366 42.5189 77.5434 42.7959 78.3473 43.0394C79.3439 43.3412 79.4143 43.4585 79.1285 43.2541L83.7814 36.7464ZM81.4581 36.0002H81.4549V44.0002H81.4581V36.0002ZM86.8931 42.9706C86.8931 41.8217 86.5313 40.6562 86.1504 39.7976C85.7782 38.9586 85.0547 37.651 83.7785 36.7421L79.1377 43.2584C78.9994 43.1599 78.9085 43.072 78.8589 43.0196C78.8083 42.9662 78.7829 42.9309 78.7776 42.9235C78.771 42.9142 78.7983 42.953 78.8376 43.0416C78.8758 43.1276 78.9009 43.2057 78.912 43.2495C78.9171 43.2693 78.9144 43.2632 78.9096 43.2307C78.9056 43.2035 78.8931 43.1126 78.8931 42.9706H86.8931ZM63.1197 45.0387C71.7868 45.3014 80.1167 46.511 82.1396 46.899L83.6467 39.0423C81.2265 38.578 72.4735 37.3185 63.3621 37.0423L63.1197 45.0387ZM54.3265 54.9575C56.1166 54.9575 57.5845 54.1438 58.5674 53.4353C59.6097 52.684 60.577 51.7078 61.4501 50.6896C63.2035 48.6447 64.9946 45.934 66.6841 43.0762L59.7976 39.0048C58.1972 41.7118 56.6826 43.9596 55.3771 45.482C54.7207 46.2475 54.2203 46.7071 53.8893 46.9457C53.4989 47.2271 53.688 46.9575 54.3265 46.9575V54.9575ZM36.0573 41.2473C36.0573 42.2144 36.3888 42.9662 36.5211 43.252C36.6995 43.6377 36.91 43.9826 37.0954 44.2605C37.471 44.8236 37.9461 45.4112 38.4516 45.9784C39.475 47.1266 40.8548 48.45 42.4196 49.7096C43.9809 50.9662 45.8187 52.2339 47.7651 53.2043C49.667 54.1525 51.9514 54.9575 54.3265 54.9575V46.9575C53.6827 46.9575 52.674 46.7125 51.3344 46.0447C50.0392 45.399 48.6871 44.4847 47.4358 43.4775C46.1881 42.4732 45.1327 41.4509 44.424 40.6557C44.0635 40.2512 43.8484 39.9677 43.7503 39.8207C43.6988 39.7435 43.7265 39.7736 43.7814 39.8924C43.7902 39.9112 44.0573 40.4439 44.0573 41.2473H36.0573ZM41.1097 33.8444C39.8368 34.1051 39.0528 34.8914 38.8791 35.0622C38.5644 35.3716 38.3185 35.6911 38.1502 35.9262C37.8025 36.4121 37.4885 36.9592 37.2373 37.4446C36.9802 37.9414 36.7309 38.4859 36.5344 39.0036C36.4158 39.3159 36.0573 40.2493 36.0573 41.2473H44.0573C44.0573 41.5004 44.0292 41.6863 44.0155 41.7671C43.9998 41.8591 43.9844 41.9178 43.98 41.9344C43.9721 41.9641 43.9782 41.9361 44.0137 41.8426C44.0837 41.6581 44.2006 41.3952 44.3422 41.1216C44.4897 40.8366 44.607 40.6503 44.6558 40.5821C44.6858 40.5401 44.6295 40.6274 44.4874 40.7672C44.4144 40.8389 44.2606 40.9824 44.0293 41.1371C43.8202 41.2769 43.3687 41.5478 42.7149 41.6817L41.1097 33.8444ZM59.6901 32.7479C52.8896 32.7757 44.78 33.0896 41.1065 33.845L42.718 41.681C45.4741 41.1142 52.768 40.7763 59.7229 40.7478L59.6901 32.7479ZM60.1005 27.514C58.8354 29.9946 57.5091 32.5021 56.2227 34.7824L63.1903 38.7133C64.5484 36.3061 65.9292 33.6937 67.2273 31.1485L60.1005 27.514ZM56.9335 38.8365C58.0268 38.8365 58.8997 38.4283 59.2464 38.2586C59.713 38.0302 60.1509 37.7536 60.5198 37.5004C61.2664 36.9881 62.0624 36.341 62.7909 35.7099C64.2528 34.4435 65.7636 32.9606 66.6132 32.0334L60.7145 26.6291C60.0914 27.3092 58.8043 28.579 57.5526 29.6634C56.9244 30.2076 56.3849 30.6355 55.9932 30.9043C55.793 31.0416 55.7112 31.0821 55.7295 31.0731C55.7415 31.0672 55.8334 31.0222 55.9897 30.9735C56.127 30.9307 56.4654 30.8365 56.9335 30.8365V38.8365ZM49.9474 31.0076C49.9474 32.1601 50.3255 33.1699 50.6163 33.8062C50.9434 34.5221 51.3688 35.2115 51.8273 35.8165C52.2781 36.4112 52.8529 37.0458 53.5312 37.5738C54.0824 38.003 55.2962 38.8365 56.9335 38.8365V30.8365C57.5258 30.8365 57.9463 30.9972 58.134 31.0825C58.3329 31.1729 58.4364 31.2541 58.4456 31.2613C58.4577 31.2707 58.3568 31.1871 58.2028 30.984C58.0567 30.7912 57.9483 30.6031 57.8927 30.4815C57.8663 30.4238 57.8707 30.422 57.8856 30.476C57.8969 30.517 57.9474 30.707 57.9474 31.0076H49.9474ZM55.1014 18.0205C54.1125 20.1407 52.8965 22.7478 51.9276 24.9594C51.4451 26.0609 51.0017 27.1145 50.6725 27.9862C50.5093 28.4186 50.354 28.8587 50.2341 29.2659C50.1523 29.5437 49.9474 30.2437 49.9474 31.0076H57.9474C57.9474 31.5091 57.8297 31.7927 57.9083 31.5257C57.9488 31.3882 58.0272 31.1553 58.1567 30.8124C58.4129 30.1338 58.7916 29.228 59.2554 28.1694C60.1791 26.0607 61.3526 23.5441 62.3517 21.4018L55.1014 18.0205ZM56.8776 14.132C56.7265 14.5282 56.0742 15.9345 55.1014 18.0205L62.3517 21.4018C63.2217 19.5363 64.0671 17.7312 64.3527 16.9822L56.8776 14.132ZM69.0143 17.5969C69.0143 16.1955 68.3445 15.22 68.0105 14.8007C67.6287 14.3212 67.2078 13.9734 66.9029 13.7472C66.2794 13.2846 65.5734 12.9163 64.9621 12.6427C63.8615 12.1503 62.145 11.5571 60.6151 11.5571V19.5571C60.494 19.5571 60.4551 19.5449 60.5226 19.5565C60.5793 19.5662 60.6764 19.5868 60.8108 19.624C61.0848 19.7 61.4035 19.8148 61.6944 19.9449C62.0117 20.0869 62.1488 20.1814 62.1361 20.172C62.1233 20.1625 62.0825 20.1315 62.0235 20.0775C61.9671 20.0259 61.8676 19.9289 61.7524 19.7842C61.6409 19.6442 61.4714 19.4056 61.3223 19.0686C61.1712 18.7272 61.0143 18.2231 61.0143 17.5969H69.0143ZM65.6429 26.7368C66.3286 25.163 67.1045 23.3827 67.7087 21.923C68.0091 21.1971 68.2856 20.5062 68.4924 19.9382C68.5943 19.6581 68.6975 19.3586 68.7804 19.0744C68.8174 18.9474 69.0143 18.3131 69.0143 17.5969H61.0143C61.0143 17.0229 61.1594 16.6319 61.1004 16.8343C61.0873 16.8794 61.0501 16.9953 60.975 17.2015C60.8278 17.6058 60.6035 18.1709 60.3168 18.8635C59.7468 20.2407 59.0035 21.947 58.3088 23.5412L65.6429 26.7368ZM57.9613 26.2168C58.1209 26.1114 59.4588 25.1925 61.2655 25.7146C63.4657 26.3504 63.9789 28.3045 64.0704 28.7591C64.1895 29.3508 64.1402 29.8219 64.1269 29.9479C64.1066 30.1402 64.0761 30.2873 64.0604 30.3583C64.0105 30.5845 63.9555 30.7176 63.9933 30.6133C64.0356 30.4961 64.1333 30.2494 64.3009 29.8484C64.6255 29.072 65.1037 27.9743 65.6429 26.7368L58.3088 23.5412C57.7799 24.7552 57.273 25.9181 56.9199 26.7629C56.7487 27.1725 56.5844 27.5764 56.4696 27.894C56.4288 28.007 56.3215 28.3035 56.2489 28.632C56.2276 28.7286 56.1933 28.8975 56.1711 29.1077C56.1559 29.2515 56.1066 29.7366 56.2278 30.3381C56.3213 30.8026 56.8384 32.7626 59.0446 33.4001C60.8572 33.924 62.2032 33.0027 62.3728 32.8906L57.9613 26.2168ZM59.6847 24.6437C59.1452 25.1324 58.6596 25.5722 58.2838 25.9066C58.095 26.0746 57.9508 26.2009 57.8505 26.2865C57.8266 26.3068 57.8076 26.3228 57.7932 26.3349C57.786 26.3408 57.7805 26.3454 57.7765 26.3487C57.7745 26.3503 57.773 26.3515 57.7719 26.3524C57.7714 26.3528 57.771 26.3531 57.7707 26.3534C57.7704 26.3536 57.7703 26.3537 57.7703 26.3537C57.7703 26.3537 57.7705 26.3536 57.7708 26.3533C57.771 26.3531 57.7715 26.3527 57.7721 26.3522C57.7733 26.3513 57.7753 26.3497 57.7779 26.3477C57.7829 26.3437 57.7922 26.3366 57.805 26.3269C57.8228 26.3135 57.8837 26.2678 57.9719 26.2099L62.3623 32.8975C62.6613 32.7012 62.9532 32.4489 63.0409 32.3741C63.2054 32.2339 63.3988 32.0638 63.602 31.883C64.0101 31.5198 64.5255 31.0529 65.0555 30.5728L59.6847 24.6437ZM62.9346 21.7617C62.1105 22.4449 60.7649 23.6652 59.6847 24.6437L65.0555 30.5728C66.2051 29.5315 67.3867 28.4624 68.0403 27.9206L62.9346 21.7617ZM65.0187 16.9381C64.1482 18.6075 63.0107 20.7886 61.8905 23.0914L69.0845 26.5909C70.1492 24.4021 71.2376 22.3144 72.1123 20.6368L65.0187 16.9381ZM66.4291 14.1707C66.4508 14.1121 66.4433 14.1404 66.3596 14.3174C66.2871 14.4706 66.1865 14.6749 66.0543 14.9362C65.7891 15.4603 65.44 16.13 65.0187 16.9381L72.1123 20.6368C72.8479 19.226 73.6513 17.7066 73.9333 16.9435L66.4291 14.1707ZM78.478 18.4963C78.8608 16.8374 78.1622 15.5621 77.7755 15.0084C77.3646 14.4201 76.8839 14.0167 76.5738 13.7816C75.9258 13.2902 75.1837 12.9117 74.57 12.6413C73.4507 12.1484 71.6993 11.5571 70.1812 11.5571V19.5571C70.0024 19.5571 70.0622 19.5346 70.4149 19.631C70.7092 19.7115 71.0462 19.8309 71.3455 19.9628C71.6815 20.1107 71.7931 20.1963 71.7401 20.1562C71.7276 20.1467 71.4797 19.9656 71.2167 19.5891C70.9779 19.2471 70.3423 18.1731 70.6828 16.6975L78.478 18.4963ZM69.0766 38.8259C71.4938 34.3463 73.7447 29.6329 75.4126 25.942C76.2477 24.0939 76.9437 22.4866 77.4476 21.2761C77.6987 20.6728 77.9082 20.1532 78.0656 19.7439C78.1736 19.4631 78.3815 18.9243 78.4824 18.4771L70.6785 16.7167C70.7323 16.4779 70.7704 16.4261 70.5988 16.8722C70.4767 17.1899 70.2969 17.6372 70.0618 18.2019C69.5933 19.3274 68.9299 20.8606 68.1224 22.6476C66.5049 26.2268 64.3378 30.7614 62.0362 35.027L69.0766 38.8259ZM52.5343 42.1478C53.0045 42.1478 53.2533 42.2639 53.1418 42.2228C53.084 42.2015 52.9357 42.1382 52.6902 42.0047C52.2006 41.7386 51.5855 41.3371 50.9504 40.8741C50.3231 40.4169 49.7599 39.9608 49.3814 39.6258C49.2895 39.5444 49.216 39.4768 49.1602 39.4238C49.1327 39.3976 49.1117 39.377 49.0967 39.362C49.0813 39.3466 49.0751 39.3399 49.0764 39.3413C49.0769 39.3418 49.0917 39.3577 49.1165 39.3869C49.1389 39.4134 49.1885 39.4732 49.2509 39.5605C49.3039 39.6346 49.4249 39.8097 49.5478 40.0606C49.6113 40.1901 49.6991 40.3879 49.7752 40.6404C49.8481 40.8825 49.9417 41.2772 49.9417 41.7737H41.9417C41.9417 42.7013 42.2642 43.3771 42.3637 43.5803C42.5052 43.869 42.6539 44.0885 42.743 44.2132C42.9252 44.4681 43.1118 44.6757 43.2328 44.8051C43.4915 45.0818 43.7931 45.3631 44.0793 45.6164C44.6686 46.1379 45.4316 46.7511 46.2379 47.3388C47.0362 47.9208 47.9619 48.54 48.8694 49.0333C49.3224 49.2796 49.8367 49.5307 50.3743 49.7289C50.858 49.9072 51.6348 50.1478 52.5343 50.1478V42.1478ZM53.788 38.8704C52.8535 40.3383 52.072 41.4208 51.4824 42.0926C51.3424 42.252 51.2297 42.3694 51.1441 42.452C51.0559 42.537 51.0176 42.5645 51.0282 42.5567C51.0322 42.5537 51.1423 42.4712 51.3512 42.381C51.5565 42.2923 51.9691 42.1478 52.5343 42.1478V50.1478C54.0721 50.1478 55.2217 49.404 55.7739 48.9971C56.4262 48.5164 57.0058 47.9272 57.495 47.3697C58.4845 46.2423 59.522 44.7601 60.5364 43.1667L53.788 38.8704ZM49.9417 41.7737C49.9417 43.0224 49.3761 43.9048 48.9939 44.3545C48.6211 44.7933 48.2399 45.0473 48.0525 45.1624C47.6736 45.3954 47.3489 45.503 47.2691 45.5296C47.1422 45.5718 47.0474 45.5952 47.0112 45.6038C46.968 45.6141 46.9421 45.619 46.9402 45.6194C46.9382 45.6198 46.9714 45.6136 47.0524 45.6021C47.1293 45.5911 47.2306 45.578 47.3584 45.5631C47.8819 45.5021 48.6851 45.4296 49.7051 45.3565C51.7331 45.2113 54.4701 45.0743 57.2437 45.0177L57.0807 37.0194C54.1673 37.0788 51.2941 37.2222 49.1336 37.377C48.0594 37.4539 47.1237 37.5363 46.432 37.617C46.1007 37.6556 45.7479 37.7025 45.441 37.7611C45.3123 37.7857 45.0408 37.8397 44.7415 37.9394C44.6198 37.9799 44.2633 38.1011 43.8631 38.3471C43.6651 38.4688 43.2758 38.7292 42.8976 39.1743C42.5101 39.6304 41.9417 40.5189 41.9417 41.7737H49.9417Z" fill="#FAEADE" mask="url(#path-1-outside-1_1_677)"/>
</svg>
