<svg width="1024" height="677" viewBox="0 0 1024 677" fill="none" xmlns="http://www.w3.org/2000/svg">
<g clip-path="url(#clip0_2267_429)">
<rect x="-0.000488281" width="1024" height="677" rx="40" fill="url(#paint0_radial_2267_429)"/>
<rect x="-0.000488281" width="1024" height="677" rx="40" fill="#F04F23"/>
<g filter="url(#filter0_f_2267_429)">
<rect x="331.27" y="-158.602" width="615.635" height="892.798" transform="rotate(15 331.27 -158.602)" fill="#F9B68F"/>
</g>
<g opacity="0.15" clip-path="url(#clip1_2267_429)">
<path d="M234.778 -194.249C232.608 -181.79 232.753 -181.935 213.946 -172.518C203.386 -167.158 202.084 -165.999 198.322 -158.9C195.574 -153.685 193.838 -147.021 192.825 -139.343C190.51 -120.654 188.919 -114.28 184.868 -107.761C181.107 -101.966 180.962 -100.517 180.818 -82.6977C180.673 -65.3131 180.384 -63.2849 176.912 -57.2003C174.163 -52.2747 172.861 -47.349 172.138 -38.367C171.559 -31.7029 170.546 -25.6183 169.823 -24.8939C167.364 -22.4311 168.087 27.2599 170.546 36.0971C173.44 45.8035 176.478 47.8317 189.353 48.701C194.995 49.1356 200.782 50.2945 202.373 51.1638C206.279 53.6266 217.852 48.701 221.324 43.051C222.771 40.8779 226.098 35.5176 228.702 31.3163C231.451 27.1151 234.2 20.5958 234.923 16.8292C239.263 -6.06057 241.288 -10.2618 252.572 -17.2157C258.504 -21.1272 259.082 -21.9965 262.265 -33.5862C265.448 -44.8862 266.026 -46.0452 269.788 -46.7695C276.876 -48.2183 279.77 -52.7093 281.216 -65.8926C281.94 -72.4118 282.952 -78.3516 283.531 -79.2208C283.965 -80.09 284.833 -84.1465 285.556 -88.2029C289.173 -111.962 292.066 -125.58 295.104 -131.954C296.985 -136.011 299.155 -143.689 299.878 -149.049C300.602 -154.264 301.614 -159.19 302.048 -160.059C303.206 -161.798 298.287 -172.663 293.658 -178.893C290.764 -182.804 289.896 -185.702 289.896 -191.207C289.896 -206.128 291.777 -205.114 262.41 -205.114H236.804L234.778 -194.249Z" fill="#FAEADE"/>
<path d="M807.369 -167.448C805.344 -165.854 801.582 -164.55 798.689 -164.55C793.192 -164.55 789.286 -161.508 782.342 -151.512C777.857 -144.848 773.662 -142.24 760.786 -137.749C751.962 -134.562 741.98 -124.856 740.678 -117.902C739.665 -112.831 735.759 -99.0684 733.878 -94.2876C728.092 -79.0761 726.645 -65.7479 730.406 -60.8222C731.708 -59.0837 732.576 -54.4479 732.576 -47.2043C732.576 -34.8902 733.155 -33.5863 738.652 -32.1376C741.112 -31.5581 743.571 -29.385 745.018 -26.7773C747.188 -22.2863 748.2 -22.1414 754.71 -24.7491C756.88 -25.6184 757.17 -24.7491 757.17 -15.6222C757.17 -4.32222 758.761 1.18291 763.246 5.96368C767.441 10.4547 768.743 10.165 775.832 3.50086C779.159 0.313676 783.21 -2.29402 784.801 -2.29402C790.877 -2.29402 798.978 -8.5235 802.45 -16.0568C808.237 -28.3709 809.684 -33.0068 810.696 -45.0312C811.709 -55.462 816.483 -77.0478 818.653 -80.6696C819.232 -81.394 820.1 -85.0158 820.823 -88.9273C824.006 -106.167 825.597 -111.093 831.962 -123.986C838.762 -137.459 838.762 -138.039 838.472 -149.918C838.038 -161.943 836.013 -167.593 831.239 -169.621C828.49 -170.635 824.006 -168.027 822.993 -164.55C821.836 -160.929 816.483 -160.639 816.483 -164.261C816.483 -166.868 813.879 -170.345 811.998 -170.345C811.564 -170.345 809.394 -169.041 807.369 -167.448Z" fill="#FAEADE"/>
<path d="M50.3283 -137.894C48.4476 -136.445 46.7116 -136.3 43.6736 -137.314C41.3589 -138.184 36.8743 -138.329 33.4023 -137.894C30.0749 -137.314 24.1436 -136.735 20.2376 -136.445C15.7529 -136.156 12.4256 -134.997 11.4129 -133.548C10.4003 -132.244 7.79628 -131.23 5.48161 -131.23C-0.0157192 -131.23 -5.80239 -127.898 -17.6651 -118.191C-33.1444 -105.298 -37.0504 -101.241 -37.0504 -98.1991C-37.0504 -96.4606 -37.6291 -94.7222 -38.4971 -94.2876C-39.3651 -93.8529 -39.9437 -91.3901 -39.9437 -89.0722C-39.9437 -84.4363 -45.0071 -73.2811 -47.1771 -73.2811C-49.0577 -73.2811 -49.7811 -69.9491 -51.5171 -54.4478C-52.8191 -42.5683 -53.6871 -40.1055 -57.1591 -36.3388C-64.1031 -28.8055 -65.9837 -24.4594 -66.9964 -13.594C-67.4304 -7.7991 -69.3111 0.313722 -71.1917 4.37013C-74.5191 12.0483 -74.6637 18.2778 -72.0597 33.0547C-70.7577 40.0086 -70.0344 40.8778 -62.6564 44.9342C-59.4737 46.6727 -58.7504 47.9765 -58.7504 52.7573C-58.7504 55.7996 -59.4737 58.8419 -60.1971 59.2765C-60.9204 59.7112 -61.6437 61.3047 -61.6437 62.7535C-61.6437 64.2022 -62.9457 67.0996 -64.5371 69.1278C-68.7324 74.3432 -68.1537 79.7035 -63.0904 84.9188C-60.0524 87.8163 -58.7504 90.5688 -58.7504 93.756C-58.7504 99.406 -57.3037 101.724 -52.8191 104.042C-50.3597 105.201 -49.0577 107.374 -48.6237 110.851C-47.4664 118.819 -36.3271 132.437 -30.8297 132.437C-28.9491 132.437 -25.1877 134.175 -22.4391 136.203C-17.9544 139.68 -16.6524 139.825 -7.10439 139.246C7.94094 138.087 8.37495 138.666 7.50695 156.486C6.92828 165.612 5.91561 172.421 4.32428 175.174C3.02228 177.492 2.00961 180.244 2.00961 181.114C2.00961 181.838 0.562943 185.46 -1.17306 189.082C-3.92172 194.442 -4.50039 198.933 -5.22372 216.897C-5.80239 230.225 -6.81506 238.918 -7.82772 239.932C-10.7211 242.829 -9.85306 250.507 -6.23639 253.839C-4.35572 255.578 -1.89639 257.027 -0.59439 257.027C0.562943 257.027 4.17961 259.055 7.21761 261.518C10.9789 264.415 13.7276 265.574 15.7529 264.994C17.3443 264.56 20.6716 263.835 23.1309 263.256C27.7603 262.532 27.7603 262.532 30.0749 270.934C34.5596 287.015 33.8363 286.291 49.7496 288.753C56.8383 289.912 58.1403 289.768 61.0336 287.015C62.7696 285.421 64.2163 283.248 64.2163 282.234C64.2163 281.22 65.8076 278.468 67.8329 276.15C69.8583 273.832 73.3303 268.182 75.7896 263.546C80.4189 254.853 85.3376 247.03 87.9416 244.712C90.6903 242.25 95.4643 234.861 98.9363 228.052C100.672 224.43 103.566 219.939 105.302 217.911C110.365 212.261 115.139 199.368 116.007 189.371C116.875 178.651 113.403 164.453 108.34 157.789C105.446 154.023 101.974 143.447 96.1876 121.137C94.5963 115.487 91.1243 111.286 85.6269 108.388C75.7896 103.318 75.0663 97.6676 81.1423 72.315C86.0609 51.4535 87.3629 20.7406 83.6016 13.3522C82.2996 10.7445 75.6449 3.06629 68.7009 -3.59782L56.2596 -15.767L55.8256 -26.0529C55.2469 -37.6427 57.8509 -43.8722 67.1096 -54.0132C79.8403 -67.6311 85.9163 -82.4081 85.9163 -99.0683C85.9163 -108.34 85.1929 -111.382 82.2996 -116.598C80.2743 -119.93 78.6829 -123.986 78.6829 -125.435C78.6829 -126.884 75.9343 -130.216 72.6069 -132.968C65.3736 -138.763 54.8129 -141.081 50.3283 -137.894Z" fill="#FAEADE"/>
<path d="M907.623 -85.5954C905.598 -84.4364 902.704 -82.9877 901.113 -82.1185C897.207 -80.38 892.722 -75.5992 884.91 -65.3133C876.809 -54.5928 874.205 -49.3774 873.626 -43.7274C872.035 -28.0813 869.576 -18.6646 865.959 -14.1736C858.147 -4.32231 858.147 -4.46719 860.028 -0.265903C861.474 2.92128 861.33 3.93538 859.16 6.3982C857.713 7.99179 855.398 9.29563 853.952 9.29563C852.071 9.29563 849.756 12.1931 846.718 18.2777C840.353 30.8815 836.736 35.3726 832.975 35.3726C831.239 35.3726 826.465 37.111 822.414 39.1392C817.062 41.8918 815.036 43.92 815.036 46.0931C815.036 53.4815 811.854 60.2905 807.08 63.0431C804.476 64.6367 801.872 67.3892 801.293 69.1277C800.136 72.3149 800.136 72.3149 799.557 68.8379C799.123 66.6649 799.702 64.6367 801.004 63.6226C803.752 61.5943 809.25 52.6123 809.25 50.0046C809.25 48.1213 814.313 37.111 820.244 26.2456C821.402 24.0726 822.993 19.002 823.572 14.9456C824.295 10.8892 825.452 6.97769 826.465 5.96358C827.333 5.09435 828.056 0.168712 828.056 -4.75693C828.056 -15.9121 825.308 -21.1274 819.521 -21.1274C816.338 -21.1274 814.892 -19.9685 812.432 -14.7531C810.696 -11.2762 809.25 -7.50949 809.25 -6.20565C809.25 -4.9018 806.935 -2.14924 804.331 -0.121031C798.834 4.08025 793.915 12.9174 792.468 20.8854C790.732 31.461 786.826 43.0508 783.933 46.0931C778.58 51.8879 776.41 56.2341 775.398 63.3328C774.53 69.4174 773.951 70.1418 771.492 69.4174C767.586 68.1136 763.39 73.6187 762.088 81.4418C761.654 84.7738 760.642 87.961 759.918 88.3956C759.195 88.8302 758.616 93.0315 758.616 97.6674C758.616 104.766 759.05 106.505 761.51 107.808C763.68 108.967 765.126 108.823 767.441 107.374C771.202 104.621 775.976 95.2046 775.976 90.4238C775.976 85.2085 777.134 84.3392 781.184 87.0918C785.669 89.9892 787.984 88.9751 791.456 82.311C796.23 72.8943 797.532 74.4879 797.098 89.5546C796.808 100.565 797.242 104.621 799.412 109.402C801.148 113.314 802.016 118.819 802.016 125.338C802.016 130.698 802.74 135.624 803.463 136.058C804.331 136.493 804.91 138.956 804.91 141.419C804.91 143.882 806.356 148.083 807.948 150.835C810.841 155.471 810.986 156.63 809.539 167.64C808.382 176.623 808.526 183.287 809.973 194.732C811.13 203.134 811.998 210.088 811.998 210.233C812.143 210.523 814.313 213.13 817.062 216.028C820.968 220.374 822.125 223.271 822.993 230.08C824.874 245.726 833.698 249.058 838.617 236.02C840.064 231.964 841.655 227.183 842.089 225.155C842.523 223.126 844.114 219.939 845.561 218.056C847.008 216.173 850.914 206.176 854.096 195.601C857.424 185.17 860.606 175.464 861.474 174.16C862.198 172.711 862.776 169.669 862.776 167.496C862.776 162.57 869.286 153.008 875.507 148.517C877.822 146.924 880.281 143.737 880.715 141.708C881.294 139.535 882.74 136.928 883.753 135.769C884.91 134.61 885.923 132.437 885.923 130.988C885.923 125.773 896.194 125.483 898.075 130.698C901.113 139.246 901.547 141.853 900.39 148.807C898.654 159.962 896.773 166.626 891.71 179.52C885.634 195.166 884.476 197.484 879.992 203.424C875.796 209.074 868.997 227.762 866.972 238.628C866.393 242.394 863.789 249.638 861.474 254.419C856.7 263.98 855.977 269.051 858.726 275.425C859.738 277.598 860.896 288.608 861.33 299.764L862.053 320.19L867.116 326.565C872.035 332.794 872.035 333.084 872.18 346.992C872.18 360.465 873.771 365.68 877.532 365.68C879.847 365.68 893.012 352.497 894.024 349.165C895.037 345.543 903.283 332.07 905.308 330.621C908.491 328.448 908.491 331.49 905.308 344.094C900.968 360.61 898.509 365.68 892.288 371.33C887.659 375.676 887.37 376.401 887.37 385.962C887.37 391.467 886.791 396.248 886.068 396.683C885.489 397.117 884.476 404.361 883.898 412.764C883.319 421.166 882.306 429.714 881.438 431.887C879.268 437.537 878.979 476.362 881.149 478.825C882.017 479.984 883.174 484.765 883.753 489.546C885.2 501.715 887.804 506.206 893.301 506.206C899.956 506.206 902.126 512.87 902.126 533.732C902.126 546.48 902.704 551.261 904.44 554.303C907.478 559.664 909.359 559.374 913.699 553.144C918.039 547.06 920.209 548.798 917.75 556.331C915.001 564.589 916.448 586.465 920.064 590.376C922.234 592.694 923.102 597.04 924.26 608.775C925.562 622.248 925.996 624.276 928.31 624.276C930.191 624.276 931.927 621.524 934.676 613.411C936.846 607.037 940.318 600.373 943.211 597.185C948.274 591.535 953.048 582.698 954.64 576.034C955.218 573.861 957.388 568.79 959.414 564.879C963.754 556.766 967.66 555.173 973.446 558.939C975.327 560.243 979.522 561.257 982.56 561.257C987.479 561.257 989.07 560.388 993.555 555.462C996.448 552.275 998.763 548.798 998.763 547.639C998.763 546.48 999.486 545.321 1000.21 545.032C1001.8 544.597 1007.44 523.735 1007.44 518.52C1007.44 516.926 1009.32 510.552 1011.78 504.467C1014.53 497.079 1016.27 489.546 1016.85 482.012C1018.15 462.02 1019.16 454.921 1021.19 448.257C1023.65 440.724 1029.14 416.24 1029.87 409.866C1030.16 407.403 1031.31 402.912 1032.18 399.58C1033.63 394.799 1033.63 391.612 1031.89 382.92C1030.44 374.952 1030.16 369.012 1031.17 359.596C1032.76 343.66 1029.29 310.049 1025.53 304.255C1023.21 300.778 1022.2 300.488 1013.08 300.488C1001.66 300.488 1001.08 299.764 1001.95 286.58C1002.38 279.771 1002.52 279.482 1007.01 279.047C1013.23 278.467 1017.28 273.107 1024.08 256.447C1028.85 244.857 1029.29 242.684 1028.85 232.543C1028.56 226.458 1027.41 218.49 1026.25 214.724C1024.37 208.494 1024.51 207.19 1027.12 199.657C1030.44 189.661 1033.77 186.908 1037.53 191.11C1039.85 193.717 1040.14 195.89 1039.12 213.565C1038.69 224.285 1037.53 235.73 1036.67 238.917C1035.8 242.105 1034.78 251.521 1034.5 259.924C1034.06 268.326 1033.05 277.453 1032.18 280.206C1029.58 288.464 1030.16 291.651 1034.21 292.665C1036.23 293.099 1038.69 295.273 1039.7 297.446C1041.01 300.198 1042.45 301.067 1045.06 300.778C1049.83 300.198 1050.84 298.17 1050.55 288.898C1050.26 282.379 1051.13 279.192 1055.04 271.514C1059.67 262.532 1059.81 261.373 1059.67 247.61C1059.38 237.758 1058.65 232.108 1057.21 229.935C1053.45 223.996 1055.47 209.074 1061.4 200.382C1062.99 197.919 1064.15 192.993 1064.44 186.619C1064.73 181.114 1065.74 174.594 1066.61 171.987C1068.64 166.771 1067.19 162.425 1062.42 159.962C1060.1 158.803 1059.52 156.92 1059.52 151.705C1059.52 146.344 1060.39 144.171 1064.01 139.97C1068.35 135.044 1068.49 134.61 1067.62 123.889C1066.18 105.056 1066.03 103.607 1064.15 101.724C1061.26 98.8264 1046.36 99.4059 1041.58 102.448C1036.52 105.78 1035.65 108.533 1037.24 114.907C1039.12 121.716 1038.26 125.193 1034.78 125.193C1031.46 125.193 1029.87 119.978 1031.02 111.865C1032.04 104.187 1029 99.1161 1023.36 99.1161C1021.19 99.1161 1018.58 100.13 1017.57 101.289C1016.56 102.448 1014.68 103.462 1013.37 103.462C1012.07 103.462 1009.18 104.476 1006.86 105.635C1004.69 106.794 1002.23 107.519 1001.66 107.084C1000.93 106.649 999.342 103.028 998.04 99.1161C996.738 95.2046 995.002 91.5828 994.278 91.1482C993.555 90.5687 992.976 78.1097 992.976 63.0431C992.976 37.6905 992.832 35.5174 989.938 31.8956C987.768 29.1431 986.177 28.2738 983.573 28.9982C981.837 29.4328 979.956 29.1431 979.378 28.4187C978.944 27.6944 975.038 28.8533 970.264 31.1713C965.634 33.4892 961.294 35.3726 960.426 35.3726C959.703 35.5174 957.678 37.2559 956.086 39.2841C947.84 49.8597 944.224 53.1918 941.764 52.3226C939.45 51.4533 939.16 49.4251 939.594 35.6623C939.739 27.1149 939.16 17.5533 938.292 14.3661C937.424 11.179 936.412 6.97769 935.978 4.94948C935.544 2.92128 931.927 -2.58385 927.876 -7.36462C923.97 -12.0005 920.643 -17.3608 920.643 -19.2441C920.643 -20.9826 922.958 -27.5018 925.851 -33.7313L931.059 -45.0313L930.046 -61.6915C928.889 -82.8428 926.43 -87.7685 917.316 -87.7685C913.988 -87.7685 909.648 -86.7544 907.623 -85.5954Z" fill="#FAEADE"/>
<path d="M681.654 -67.7764C679.484 -66.3277 675.868 -61.9815 673.842 -57.9251C671.672 -54.0136 669.068 -49.2328 668.056 -47.2046C666.898 -45.1764 666.03 -41.12 666.03 -38.2226C666.03 -35.3251 665.452 -31.4136 664.728 -29.5303C664.005 -27.6469 662.992 -24.4597 662.414 -22.1418C661.98 -19.9687 658.652 -15.4777 655.18 -12.1456C651.564 -8.66872 648.67 -5.1918 648.67 -4.17769C648.67 -3.16359 648.092 -1.13539 647.368 0.313332C646.5 1.61718 645.488 5.23897 645.054 8.13641C644.475 11.6133 643.318 13.7864 641.582 14.3659C635.94 16.1044 634.204 20.3056 632.034 36.2415C627.404 72.4595 625.379 82.8902 621.328 92.5967C619.882 96.2185 619.014 102.448 619.014 109.981C619.014 120.702 619.448 122.295 623.064 127.076C626.247 131.277 626.97 133.74 626.97 140.259C626.97 147.503 627.549 148.952 632.034 154.022C635.94 158.368 637.097 160.831 637.097 165.322C637.097 171.697 639.122 174.449 643.752 174.449C647.079 174.449 651.564 167.206 651.564 161.845C651.564 158.658 655.759 154.167 658.652 154.167C659.52 154.167 661.98 152.429 663.86 150.401C666.609 147.358 667.477 144.895 667.477 139.825C667.477 132.292 668.056 131.422 680.931 123.744C685.56 120.992 690.19 117.37 691.202 115.776C694.385 110.706 697.712 97.3774 698.436 85.7877C698.87 77.2403 700.027 72.8941 703.065 67.389C706.537 60.8697 706.826 59.1313 706.103 49.5697C705.235 38.2697 707.116 25.8108 710.154 22.3338C712.468 19.7262 713.626 6.25307 714.638 -26.9226C715.651 -59.8085 713.047 -67.7764 701.04 -68.211C698.146 -68.3559 693.372 -68.9354 690.624 -69.5149C686.862 -70.2392 684.548 -69.8046 681.654 -67.7764Z" fill="#FAEADE"/>
<path d="M452.646 -36.9181C448.74 -35.904 445.268 -33.5861 441.507 -29.3848C438.469 -26.0527 436.01 -22.8656 436.01 -22.2861C436.01 -21.7066 432.104 -14.7527 427.33 -6.92966C422.556 1.03828 418.65 8.137 418.65 9.00623C418.65 10.5998 409.391 17.9883 407.221 17.9883C404.762 17.9883 403.026 22.7691 402.013 32.4755C401 41.0229 399.554 47.687 395.358 60.8703C394.635 63.3332 393.912 72.4601 393.767 81.1524C393.622 99.8409 392.32 103.752 382.628 114.618C372.935 125.483 371.633 128.815 368.74 149.532C365.412 173.001 366.28 187.054 371.633 197.774C373.948 202.12 376.262 207.481 376.841 209.943C377.42 212.261 380.024 219.795 382.483 226.604C385.087 233.413 387.98 242.105 389.138 246.161C394.201 265.429 396.805 277.019 396.95 280.931C397.094 287.305 398.83 289.478 402.881 288.174C409.97 286.001 413.008 280.931 418.071 263.546C420.82 253.84 428.776 243.988 433.84 243.988C435.576 243.988 438.035 245.147 439.192 246.451C444.69 252.825 445.413 256.013 445.558 280.351C445.847 301.647 446.281 305.124 448.885 310.34C452.357 317.149 455.829 319.611 459.301 317.873C460.603 317.149 464.509 311.788 467.981 305.993C471.453 300.199 475.359 294.259 476.661 292.81C477.963 291.361 481.435 284.118 484.473 276.874C487.366 269.486 490.694 261.373 491.851 258.765C493.008 256.158 493.876 251.232 493.876 247.755C493.876 243.409 494.744 240.801 496.77 238.918C498.361 237.469 499.808 236.6 500.097 236.89C505.739 244.713 506.028 246.017 506.462 270.065C506.752 293.245 509.066 308.601 513.985 321.205C514.853 323.523 515.577 327.869 515.577 331.056C515.577 338.01 521.363 347.861 526.571 349.745C528.597 350.614 531.779 350.759 533.805 350.324C539.013 349.02 545.957 339.893 545.957 334.388C545.957 331.925 547.259 325.406 548.85 319.901C550.586 314.396 552.611 307.297 553.479 304.11C555.071 298.75 559.845 289.043 561.87 287.45C562.449 287.015 564.04 283.828 565.487 280.206C567.801 274.556 568.091 269.051 568.235 238.918C568.38 212.986 568.959 203.279 570.405 200.672C572.72 196.47 572.865 136.349 570.55 129.974C569.682 127.801 566.644 122.586 563.895 118.529C559.266 111.865 557.964 110.996 551.02 109.402C546.68 108.388 542.774 106.94 542.34 106.215C536.987 97.8126 513.262 131.278 508.343 154.168C507.33 158.514 505.305 164.164 503.858 166.627C501.544 170.538 501.11 174.16 501.11 193.863C501.11 206.322 500.531 216.463 499.952 216.463C498.361 216.463 495.468 199.223 494.455 183.866C493.876 174.884 494.31 167.786 495.757 160.832C497.638 151.995 497.782 149.097 495.757 136.204C494.6 128.091 492.43 119.254 490.838 116.356C487.366 109.547 487.366 107.229 491.128 99.4062C493.876 94.046 494.166 91.728 493.153 83.4703C492.574 78.1101 491.851 65.2165 491.562 54.9306C490.838 24.7973 487.077 1.03828 480.133 -18.954C474.346 -35.6143 472.032 -38.5117 464.509 -38.3668C461.182 -38.222 455.829 -37.6425 452.646 -36.9181Z" fill="#FAEADE"/>
<path d="M246.496 110.995C246.496 112.01 244.471 116.79 242.156 121.571C239.842 126.352 237.816 130.988 237.816 131.712C237.816 132.581 235.936 134.899 233.621 136.927C230.872 139.39 227.256 146.054 222.916 156.92C214.38 178.216 211.342 180.679 201.939 173.435C197.744 170.393 196.442 169.958 194.272 171.262C192.825 172.276 190.8 173.001 189.787 173.001C187.183 173.001 179.95 180.534 179.95 183.286C179.95 184.735 179.371 186.039 178.503 186.329C176.478 187.053 171.414 202.12 171.125 208.639C170.836 214.579 167.508 226.024 162.879 236.744C160.854 241.67 159.986 247.899 159.407 261.662C158.973 271.803 157.96 280.93 157.237 281.944C156.369 282.958 155.212 286.725 154.633 290.347C153.62 297.445 152.752 300.922 148.557 314.25C146.242 321.929 145.953 327.868 146.242 368.867C146.387 408.707 146.821 415.806 148.991 421.745C152.752 432.031 153.91 432.9 165.049 432.9L174.886 433.045L175.754 441.013C177.201 452.748 176.188 455.5 170.836 455.5C166.062 455.5 158.25 461.585 158.25 465.207C158.25 466.366 156.369 471.291 154.054 476.217C147.4 490.849 146.098 495.775 147.834 501.715C151.161 513.304 152.463 527.212 150.727 533.152C148.557 540.395 145.374 544.162 141.758 543.583C138.864 543.148 138.72 541.989 138.286 524.459C137.996 511.566 138.575 503.453 140.022 498.383C141.179 494.326 142.481 482.447 143.06 472.161C143.638 461.73 144.651 452.603 145.519 451.589C146.242 450.72 146.676 447.677 146.387 445.07C146.098 441.448 145.23 440.144 142.915 439.854C141.179 439.565 139.154 437.826 138.286 435.798C137.128 433.48 135.392 432.321 133.078 432.321C128.738 432.321 125.7 438.985 127.002 445.649C128.014 451.154 124.542 461.585 119.479 467.815C116.586 471.291 116.152 473.03 117.02 477.956C117.454 481.143 117.888 486.213 117.743 489.256C117.743 492.298 118.611 498.527 119.913 503.018C122.806 512.87 121.938 521.127 116.73 532.138C114.705 536.484 112.824 543.293 112.535 547.349C112.39 551.406 111.667 558.07 111.233 561.981C110.365 568.5 110.654 569.515 113.982 572.702C118.9 577.338 119.19 586.32 114.705 591.1C110.076 596.026 109.063 603.849 110.944 618.481L112.68 631.52L118.611 633.548C123.964 635.431 125.121 635.286 131.197 632.824C139.154 629.491 141.034 626.015 139.877 616.308C139.009 609.065 139.154 608.775 142.481 609.354C145.664 609.789 145.953 610.513 146.387 619.93C146.821 630.071 149.136 635.141 153.476 635.141C154.488 635.141 157.816 633.548 160.854 631.809C169.1 626.594 174.886 625.87 177.346 629.781C183.566 639.488 184.724 646.586 184.868 673.532C185.013 693.525 185.447 700.479 187.038 702.217C189.208 704.97 199.914 705.549 204.254 703.376C205.556 702.652 209.751 700.768 213.512 699.03C218.142 696.857 222.482 693.09 226.532 687.875C235.791 675.995 236.948 677.154 237.961 699.609C239.118 724.672 242.156 735.248 249.679 740.608C252.862 742.926 256.623 749.88 256.623 753.647C256.623 755.095 254.308 760.745 251.56 766.395C247.075 775.377 246.496 777.55 246.641 787.981C246.641 803.482 248.377 812.754 251.849 817.39C254.453 820.722 255.755 821.302 261.108 820.867C268.486 820.432 280.638 813.768 284.833 808.118C286.424 805.945 290.041 801.309 292.934 797.832C301.036 787.981 304.363 780.158 304.363 770.886C304.363 766.395 304.942 762.484 305.665 762.049C306.244 761.615 307.256 758.572 307.69 755.385C308.124 751.763 310.15 747.707 312.898 744.52C316.37 740.608 317.383 738 317.383 733.509C317.383 727.57 321.289 722.209 325.629 722.065C326.642 722.065 330.114 716.559 333.441 709.75C339.083 698.016 339.662 697.436 344.146 697.436C355.864 697.436 362.808 691.207 364.255 679.617C365.268 672.229 365.702 671.215 369.174 670.345C371.344 669.911 373.514 668.752 374.092 667.883C374.671 667.013 375.539 666.724 375.973 667.303C376.407 667.738 374.816 671.07 372.356 674.691C370.042 678.313 368.016 682.659 368.016 684.398C368.016 686.281 365.123 692.511 361.506 698.595C357.022 705.984 354.996 711.054 354.996 714.676C354.852 717.574 353.694 722.499 352.103 725.686C349.065 731.916 348.342 742.781 350.656 748.721C352.248 752.922 356.732 755.675 359.915 754.516C362.953 753.357 368.016 744.954 368.016 741.188C368.016 739.449 370.765 735.393 374.237 731.916C380.747 725.397 383.062 720.181 387.691 701.058C389.427 693.815 391.452 689.468 394.78 685.847C399.554 680.631 402.302 674.836 403.026 668.462C403.315 665.854 404.472 664.695 407.221 664.406C411.272 663.971 413.876 659.19 416.914 646.297C420.386 632.099 418.071 623.697 411.127 625.435C407.076 626.449 402.592 634.852 401.434 644.124L400.566 649.918L396.516 646.731C393.044 643.979 392.176 643.834 390.15 645.572C388.848 646.586 386.968 649.629 385.81 652.091C382.483 660.204 381.036 657.597 381.036 643.399C381.036 632.824 380.458 628.767 378.143 624.276C376.552 621.089 375.25 615.729 375.25 611.962C375.105 599.503 372.646 587.768 368.884 581.684C365.557 576.613 365.268 575.165 366.859 572.412C367.872 570.384 368.45 562.706 368.45 551.116C368.306 531.993 367.293 528.226 357.89 512C356.298 509.248 354.996 505.481 354.996 503.743C354.996 498.672 350.512 490.559 347.184 489.69C343.278 488.531 339.662 492.877 337.492 500.845C336.624 504.177 334.454 509.683 332.573 513.015C330.692 516.347 328.812 521.127 328.233 523.59C327.654 525.908 326.642 528.226 325.918 528.661C325.195 529.24 324.616 531.413 324.616 533.586C324.616 535.904 323.748 538.512 322.591 539.381C321.434 540.395 320.132 544.452 319.553 548.653C318.974 552.709 317.962 557.056 317.238 558.359C316.66 559.518 315.647 562.995 315.213 565.893C314.634 569.804 312.175 573.861 306.678 579.656C302.482 584.291 297.564 591.1 295.683 595.012C290.764 605.008 288.16 607.036 282.808 604.863C278.178 602.835 276.876 599.068 276.876 587.334C276.876 580.815 280.927 565.024 284.833 556.186C285.846 553.724 288.45 548.218 290.33 543.872C292.356 539.381 295.538 533.441 297.419 530.689C300.891 525.474 306.388 509.827 310.873 491.718C312.32 486.503 314.056 481.288 315.068 480.129C320.71 472.885 321.144 469.408 317.528 451.879C316.804 447.822 316.081 438.261 316.081 430.438C315.936 415.516 314.49 410.445 308.124 403.636C305.52 400.739 304.942 397.842 304.363 384.803C303.64 370.461 303.35 369.302 300.602 368.867C296.406 368.288 286.569 378.284 282.084 387.7C278.757 394.799 272.392 403.347 270.366 403.347C269.064 403.347 269.643 397.552 271.668 390.598C272.826 386.831 274.562 380.602 275.719 376.69C277.021 371.475 279.191 368.143 283.82 364.231C289.752 358.871 289.896 358.581 289.896 349.454C289.896 344.384 290.764 337.285 291.922 333.663C293.079 330.186 294.381 320.77 294.815 312.657C295.249 304.544 296.262 295.127 297.13 291.506C300.168 279.771 297.13 250.362 291.198 233.122C289.318 227.907 288.594 227.327 283.965 226.893C279.191 226.458 278.612 225.879 276.732 220.374C275.719 217.042 274.417 206.176 273.983 196.325C273.404 181.548 272.826 178.071 270.8 176.767C268.92 175.608 267.618 175.898 264.869 178.506C262.988 180.244 261.252 181.693 260.818 181.693C260.529 181.693 260.24 173.58 260.24 163.729C260.24 146.344 260.095 145.765 256.623 142.867C253.296 140.26 253.006 138.811 252.862 128.235C252.717 121.716 252.138 114.907 251.704 112.879C250.836 109.257 246.496 107.808 246.496 110.995Z" fill="#FAEADE"/>
<path d="M653.155 256.012C648.815 259.199 646.211 262.386 645.343 265.574C644.764 268.181 642.449 273.107 640.424 276.294C638.399 279.626 636.084 284.552 635.505 287.304C633.625 295.852 638.399 326.13 643.028 335.547C643.751 336.995 644.33 339.603 644.33 341.486C644.33 343.37 646.355 347.571 648.815 350.903C651.274 354.38 653.589 359.595 654.023 362.783C654.601 366.984 656.048 369.736 659.375 372.344C670.949 381.761 674.999 385.817 680.063 392.771C684.403 398.711 686.428 400.449 689.611 400.449C691.781 400.449 693.517 399.725 693.517 399.001C693.517 396.972 698.725 397.117 702.631 399.29C704.367 400.16 709.43 403.636 713.77 406.968C718.11 410.301 724.041 414.067 726.79 415.371C733.011 417.979 756.302 419.862 759.919 417.834C761.365 417.11 763.969 413.053 765.85 408.997C770.335 398.421 769.611 384.224 764.259 377.125C760.642 372.344 751.962 354.815 748.779 346.122C747.911 343.66 746.899 339.024 746.609 335.692C745.741 328.303 740.823 317.583 736.483 313.671C733.155 310.629 722.595 302.081 715.072 296.286C712.613 294.258 708.562 290.057 706.247 286.87C700.75 279.192 686.283 264.27 684.258 264.27C683.535 264.27 680.063 261.662 676.735 258.33C668.345 250.072 661.979 249.493 653.155 256.012Z" fill="#FAEADE"/>
<path d="M34.2704 393.351C26.1691 396.538 21.9738 401.609 20.0931 410.591C19.5144 413.343 18.5018 416.241 17.9231 417.11C17.3444 417.834 16.3318 421.891 15.7531 425.947C14.7404 434.35 16.6211 437.247 23.2758 436.378C27.0371 435.943 27.3264 436.233 26.8924 441.014C24.7224 467.091 24.5778 465.932 28.1944 465.352C31.6664 464.918 41.6484 450.286 43.3844 442.897C43.9631 440.724 47.0011 434.06 50.0391 427.975C57.4171 413.633 59.8764 406.824 59.8764 399.436C59.8764 392.771 59.5871 392.627 48.3031 391.178C43.6738 390.598 39.6231 391.323 34.2704 393.351Z" fill="#FAEADE"/>
<path d="M633.914 414.068C631.6 416.241 629.14 422.036 627.838 428.12C627.26 430.873 625.813 432.177 623.064 432.756C616.41 434.205 615.252 435.799 614.384 444.781C613.372 454.777 611.491 457.384 601.509 462.165C597.458 464.049 593.118 466.801 591.672 468.395C588.055 472.306 583.57 486.359 583.57 493.747C583.57 502.874 580.822 514.754 577.639 520.259C575.324 524.025 574.89 527.213 575.18 539.092C575.324 550.392 574.746 554.883 572.431 561.258C568.236 572.702 565.776 598.779 566.5 624.277C567.223 651.513 568.38 653.975 580.098 653.975C584.294 653.975 588.2 654.555 588.634 655.424C589.936 657.452 596.88 657.163 599.918 654.7C606.138 650.064 614.674 631.375 615.976 619.496C617.133 608.775 620.171 603.125 627.115 598.49C631.166 595.737 632.323 593.854 633.625 586.9C635.506 577.483 638.544 571.978 642.739 570.674C644.62 570.095 645.922 568.067 646.356 565.169C646.79 562.561 647.802 555.897 648.67 550.392C652.287 526.488 657.35 500.556 659.665 493.168C663.282 481.288 663.86 472.161 661.112 466.511C659.81 463.759 658.797 461.006 658.797 460.137C658.797 459.413 657.784 457.964 656.627 456.95C655.18 455.791 654.457 452.459 654.457 446.664C654.457 439.42 653.878 437.682 650.551 434.64C647.947 432.177 645.922 427.976 644.33 421.891C642.594 414.647 641.437 412.619 638.978 412.329C637.386 412.04 635.072 412.909 633.914 414.068Z" fill="#FAEADE"/>
<path d="M73.6198 435.943C71.3051 437.102 67.5438 438.261 65.3738 438.695C62.3358 439.42 60.7444 441.448 57.7064 447.967C55.6811 452.458 52.9324 458.108 51.9198 460.571C50.7624 462.889 49.4604 467.235 49.0264 469.988C48.5924 472.74 46.7118 477.956 44.8311 481.577C32.9684 504.177 33.9811 500.845 33.8364 522.866C33.8364 549.088 37.7424 561.257 46.4224 561.257C51.0518 561.257 55.6811 550.826 56.6938 537.643C57.4171 528.081 57.5618 527.647 66.5311 517.65C71.4498 512 78.1044 503.743 81.1424 499.252L86.6398 490.994L87.0738 466.076L87.6524 441.158L83.8911 437.391C79.6958 433.335 79.5511 433.19 73.6198 435.943Z" fill="#FAEADE"/>
<path d="M804.042 487.082C802.45 488.097 796.085 498.527 793.481 504.032C792.758 505.626 790.443 508.523 788.418 510.407C786.392 512.435 784.656 514.608 784.656 515.332C784.656 516.636 782.197 522.721 778.146 531.558C773.083 542.423 770.19 551.695 770.19 557.055C770.19 560.243 769.177 564.444 767.875 566.327C765.416 570.094 765.705 585.595 768.888 612.396C769.756 620.075 770.045 629.491 769.466 633.258C766.139 658.031 767.73 682.37 773.228 690.482C776.844 695.553 776.7 699.609 772.938 705.694C770.045 710.33 769.9 711.634 771.058 728.294C771.781 738 772.215 747.852 772.07 750.314C771.636 756.979 775.687 797.108 777.134 800.005C777.857 801.309 778.87 805.511 779.448 809.132C780.75 817.535 787.26 834.775 791.166 839.555C795.362 844.771 798.11 845.35 808.237 843.032C818.798 840.57 824.006 835.644 830.95 821.302C833.409 816.376 836.592 811.161 838.038 809.857C839.63 808.408 842.234 804.062 843.825 800.15C846.14 795.08 848.454 792.182 852.65 789.864C859.16 786.098 862.776 778.999 862.776 770.017C862.776 766.975 863.789 761.325 865.091 757.413C868.708 745.534 870.299 735.248 871.022 718.008L871.601 701.493L878.111 695.118C881.583 691.496 884.476 688.164 884.476 687.44C884.476 686.861 885.634 685.267 887.08 683.818C891.999 679.472 895.76 661.508 897.062 635.431C897.641 624.276 897.207 620.799 894.603 613.845C892.867 609.209 890.986 604.863 890.263 603.994C889.684 603.27 888.527 600.227 887.659 597.475C886.791 594.722 884.476 587.768 882.306 582.263C875.941 565.313 870.154 543.438 868.708 530.689C867.406 519.389 866.538 517.795 862.198 517.795C858.726 517.795 849.756 525.618 849.756 528.661C849.756 534.455 843.102 550.536 838.472 555.462C832.541 562.271 830.082 562.561 824.295 557.635L820.1 554.013L819.232 529.095C818.364 502.294 817.062 495.775 811.42 489.69C807.803 485.779 806.646 485.344 804.042 487.082Z" fill="#FAEADE"/>
<path d="M-23.162 672.229C-23.596 673.533 -24.03 676.43 -24.03 678.748C-24.03 681.935 -24.7533 682.95 -26.9233 682.95C-28.5147 682.95 -30.2507 684.108 -30.8293 685.412C-31.2633 686.861 -32.8547 690.628 -34.1567 693.815C-35.6033 697.002 -37.1947 703.666 -37.6287 708.737C-38.2073 713.662 -40.088 722.644 -42.1133 728.584C-47.3213 744.81 -47.6107 747.997 -45.0067 762.049C-41.824 779.869 -40.3773 783.635 -36.3267 785.808C-34.3013 786.823 -32.71 788.271 -32.71 788.851C-32.71 789.43 -31.6973 790.879 -30.54 792.183C-27.936 794.646 -20.992 793.197 -16.652 789.285C-14.1927 787.112 -13.7587 787.112 -10.142 790.01C-7.972 791.748 -5.802 793.052 -5.07866 793.052C-2.47466 793.052 0.563338 788.126 0.563338 783.78C0.563338 781.317 1.142 778.565 1.72067 777.696C2.444 776.971 4.18 773.205 5.62667 769.293C8.66467 760.891 7.94134 749.591 3.60134 740.464C2.15467 737.132 -0.015329 730.612 -0.883329 725.832C-1.896 721.196 -3.77666 713.517 -5.368 709.026C-6.81466 704.535 -8.26133 695.843 -8.55066 690.048C-8.98466 681.356 -9.708 678.314 -12.4567 674.547C-16.218 669.476 -21.7153 668.317 -23.162 672.229Z" fill="#FAEADE"/>
</g>
</g>
<defs>
<filter id="filter0_f_2267_429" x="-149.803" y="-408.602" width="1325.73" height="1521.71" filterUnits="userSpaceOnUse" color-interpolation-filters="sRGB">
<feFlood flood-opacity="0" result="BackgroundImageFix"/>
<feBlend mode="normal" in="SourceGraphic" in2="BackgroundImageFix" result="shape"/>
<feGaussianBlur stdDeviation="125" result="effect1_foregroundBlur_2267_429"/>
</filter>
<radialGradient id="paint0_radial_2267_429" cx="0" cy="0" r="1" gradientUnits="userSpaceOnUse" gradientTransform="translate(535.499 368.5) rotate(107.283) scale(665.433 728.24)">
<stop stop-color="#E7C4A9"/>
<stop offset="1" stop-color="#BC7853"/>
</radialGradient>
<clipPath id="clip0_2267_429">
<rect width="1024" height="677" fill="white" transform="translate(-0.000488281)"/>
</clipPath>
<clipPath id="clip1_2267_429">
<rect width="1302" height="1130" fill="white" transform="translate(-168.697 -205.114)"/>
</clipPath>
</defs>
</svg>
