<svg width="40" height="40" viewBox="0 0 40 40" fill="none" xmlns="http://www.w3.org/2000/svg">
<g clip-path="url(#clip0_1266_137)">
<path fill-rule="evenodd" clip-rule="evenodd" d="M20 6.6665C21.425 6.6665 22.8867 6.70317 24.3034 6.76317L25.9767 6.84317L27.5784 6.93817L29.0784 7.03984L30.4484 7.1465C31.9351 7.2603 33.3341 7.89475 34.3993 8.93824C35.4644 9.98172 36.1274 11.3674 36.2717 12.8515L36.3384 13.5598L36.4634 15.0765C36.58 16.6482 36.6667 18.3615 36.6667 19.9998C36.6667 21.6382 36.58 23.3515 36.4634 24.9232L36.3384 26.4398C36.3167 26.6832 36.295 26.9182 36.2717 27.1482C36.1274 28.6325 35.4641 30.0184 34.3986 31.0619C33.3331 32.1055 31.9338 32.7397 30.4467 32.8532L29.08 32.9582L27.58 33.0615L25.9767 33.1565L24.3034 33.2365C22.8698 33.2988 21.435 33.331 20 33.3332C18.5651 33.331 17.1303 33.2988 15.6967 33.2365L14.0234 33.1565L12.4217 33.0615L10.9217 32.9582L9.55171 32.8532C8.06496 32.7394 6.66596 32.1049 5.60083 31.0614C4.5357 30.018 3.87266 28.6323 3.72837 27.1482L3.66171 26.4398L3.53671 24.9232C3.40927 23.2851 3.34145 21.6429 3.33337 19.9998C3.33337 18.3615 3.42004 16.6482 3.53671 15.0765L3.66171 13.5598C3.68337 13.3165 3.70504 13.0815 3.72837 12.8515C3.87261 11.3677 4.5354 9.9822 5.60019 8.93874C6.66499 7.89529 8.06359 7.26067 9.55004 7.1465L10.9184 7.03984L12.4184 6.93817L14.0217 6.84317L15.695 6.76317C17.1292 6.70089 18.5645 6.66866 20 6.6665ZM16.6667 15.9582V24.0415C16.6667 24.8115 17.5 25.2915 18.1667 24.9082L25.1667 20.8665C25.319 20.7788 25.4456 20.6525 25.5335 20.5004C25.6215 20.3482 25.6678 20.1756 25.6678 19.9998C25.6678 19.8241 25.6215 19.6514 25.5335 19.4993C25.4456 19.3471 25.319 19.2209 25.1667 19.1332L18.1667 15.0932C18.0146 15.0054 17.8421 14.9592 17.6665 14.9592C17.491 14.9592 17.3185 15.0055 17.1664 15.0933C17.0144 15.1812 16.8882 15.3075 16.8004 15.4596C16.7127 15.6117 16.6666 15.7842 16.6667 15.9598V15.9582Z" fill="#FAEADE"/>
</g>
<defs>
<clipPath id="clip0_1266_137">
<rect width="40" height="40" fill="white"/>
</clipPath>
</defs>
</svg>
